# 3ds Max Wavefront OBJ Exporter v0.97b - (c)2007 guruware
# File Created: 23.05.2018 15:50:45

#
# object Cactus
#

v  -0.6610 -0.0209 0.8896
v  -0.3833 -0.0209 0.7830
v  -0.4258 0.3362 0.7555
v  -0.6479 0.3362 0.8408
v  -0.3989 -0.0209 0.4860
v  -0.4382 0.3362 0.5178
v  -0.6862 -0.0209 0.4090
v  -0.6681 0.3362 0.4562
v  -0.8482 -0.0209 0.6585
v  -0.7977 0.3362 0.6558
v  -0.4152 0.7199 0.7144
v  -0.6929 0.7014 0.8194
v  -0.4307 0.7714 0.4219
v  -0.7181 0.7848 0.3461
v  -0.8801 0.7415 0.5917
v  -0.3905 1.0688 0.7922
v  -0.7005 1.0481 0.9094
v  -0.4079 1.1264 0.4657
v  -0.7286 1.1413 0.3811
v  -0.9094 1.0929 0.6553
v  -0.3700 1.4182 0.8673
v  -0.7068 1.3958 0.9947
v  -0.3889 1.4808 0.5126
v  -0.7374 1.4970 0.4206
v  -0.9338 1.4444 0.7186
v  -0.4152 1.7750 0.9005
v  -0.6929 1.7565 1.0054
v  -0.4307 1.8266 0.6080
v  -0.7181 1.8400 0.5321
v  -0.8801 1.7967 0.7778
v  -0.6566 1.9853 0.9085
v  -0.5326 1.9936 0.8616
v  -0.5395 2.0166 0.7309
v  -0.6679 2.0226 0.6970
v  -0.7403 2.0032 0.8068
v  -0.7440 1.0668 1.0774
v  -0.8350 1.1384 1.0653
v  -0.7609 1.1806 0.8570
v  -0.6859 1.1215 0.8671
v  -0.8002 1.2459 1.0937
v  -0.7323 1.2692 0.8805
v  -0.6877 1.2407 1.1234
v  -0.6395 1.2649 0.9050
v  -0.6529 1.1300 1.1134
v  -0.6108 1.1736 0.8967
v  -0.7795 1.1204 1.2216
v  -0.8604 1.1865 1.1699
v  -0.8091 1.2849 1.1344
v  -0.6966 1.2796 1.1641
v  -0.6783 1.1780 1.2180
v  -0.8097 1.2994 1.3676
v  -0.8972 1.3382 1.2683
v  -0.8232 1.3910 1.1645
v  -0.6900 1.3848 1.1997
v  -0.6817 1.3282 1.3252
v  -0.8003 1.4367 1.3564
v  -0.8421 1.4553 1.3089
v  -0.8068 1.4805 1.2594
v  -0.7432 1.4775 1.2762
v  -0.7392 1.4505 1.3361
v  -0.4695 0.0000 -0.1665
v  -0.0792 0.0000 -0.2075
v  -0.1239 0.4712 -0.2571
v  -0.4361 0.4712 -0.2242
v  0.0023 0.0000 -0.5913
v  -0.0586 0.4712 -0.5642
v  -0.3375 0.0000 -0.7875
v  -0.3305 0.4712 -0.7212
v  -0.6291 0.0000 -0.5250
v  -0.5639 0.4712 -0.5111
v  -0.0792 1.0079 -0.2001
v  -0.4695 1.0150 -0.1597
v  0.0023 0.9412 -0.5781
v  -0.3375 0.9071 -0.7714
v  -0.6291 0.9527 -0.5128
v  -0.0533 1.4769 -0.2536
v  -0.4889 1.4848 -0.2085
v  0.0377 1.4025 -0.6755
v  -0.3415 1.3645 -0.8911
v  -0.6670 1.4154 -0.6025
v  -0.0317 1.9451 -0.3118
v  -0.5050 1.9537 -0.2628
v  0.0673 1.8642 -0.7702
v  -0.3449 1.8229 -1.0046
v  -0.6986 1.8782 -0.6910
v  -0.0792 2.3999 -0.4456
v  -0.4695 2.4070 -0.4052
v  0.0023 2.3333 -0.8236
v  -0.3375 2.2992 -1.0168
v  -0.6291 2.3448 -0.7582
v  -0.3772 2.6501 -0.6105
v  -0.2028 2.6469 -0.6285
v  -0.1664 2.6171 -0.7974
v  -0.3182 2.6019 -0.8837
v  -0.4485 2.6223 -0.7682
v  -0.8792 1.4429 -0.2269
v  -0.9499 1.5363 -0.3974
v  -0.5763 1.5211 -0.5387
v  -0.5180 1.4440 -0.3981
v  -0.9229 1.7402 -0.3746
v  -0.5540 1.6892 -0.5199
v  -0.8354 1.7727 -0.1899
v  -0.4819 1.7160 -0.3676
v  -0.8084 1.5890 -0.0986
v  -0.4597 1.5645 -0.2924
v  -1.1002 1.5969 -0.1494
v  -1.1077 1.6636 -0.3452
v  -0.9784 1.8241 -0.3631
v  -0.8909 1.8567 -0.1784
v  -0.9662 1.7163 -0.0464
v  -1.2880 1.9649 -0.1254
v  -1.2457 1.9602 -0.3666
v  -1.0098 2.0150 -0.4032
v  -0.9062 2.0535 -0.1845
v  -1.0782 2.0226 -0.0129
v  -1.2299 2.1933 -0.1932
v  -1.2097 2.1911 -0.3084
v  -1.0970 2.2173 -0.3259
v  -1.0475 2.2357 -0.2214
v  -1.1297 2.2209 -0.1394
v  0.0273 0.8043 -0.9102
v  0.1566 0.9439 -0.8246
v  -0.1244 1.0036 -0.5418
v  -0.2311 0.8884 -0.6124
v  0.1072 1.1322 -0.8999
v  -0.1651 1.1588 -0.6039
v  -0.0526 1.1089 -1.0320
v  -0.2970 1.1396 -0.7128
v  -0.1020 0.9062 -1.0383
v  -0.3377 0.9725 -0.7181
v  0.1854 0.9089 -1.1199
v  0.2695 1.0361 -0.9774
v  0.1469 1.2041 -0.9606
v  -0.0130 1.1808 -1.0927
v  0.0108 0.9984 -1.1912
v  0.3197 1.2368 -1.3403
v  0.3827 1.3148 -1.1145
v  0.1783 1.3964 -1.0022
v  -0.0109 1.3688 -1.1586
v  0.0765 1.2702 -1.3676
v  0.2782 1.4806 -1.3330
v  0.3082 1.5179 -1.2251
v  0.2106 1.5568 -1.1715
v  0.1202 1.5436 -1.2462
v  0.1619 1.4965 -1.3460
v  0.8357 -0.0345 0.1621
v  0.6927 -0.0345 -0.1311
v  0.6667 0.3572 -0.0822
v  0.7811 0.3572 0.1524
v  0.3697 -0.0345 -0.0857
v  0.4082 0.3572 -0.0458
v  0.3130 -0.0345 0.2355
v  0.3629 0.3572 0.2112
v  0.6011 -0.0345 0.3887
v  0.5933 0.3572 0.3338
v  0.6927 0.7489 -0.1311
v  0.8357 0.7489 0.1621
v  0.3697 0.7489 -0.0857
v  0.3130 0.7489 0.2355
v  0.6011 0.7489 0.3887
v  0.7499 1.1406 -0.2387
v  0.9556 1.1406 0.1832
v  0.2851 1.1406 -0.1733
v  0.2036 1.1406 0.2889
v  0.6180 1.1406 0.5093
v  0.7661 1.5323 -0.2692
v  0.9897 1.5323 0.1892
v  0.2610 1.5323 -0.1982
v  0.1725 1.5323 0.3041
v  0.6228 1.5323 0.5436
v  0.7304 1.9240 -0.2020
v  0.9147 1.9240 0.1760
v  0.3139 1.9240 -0.1435
v  0.2409 1.9240 0.2707
v  0.6122 1.9240 0.4681
v  0.6845 2.1526 0.1354
v  0.6206 2.1526 0.0044
v  0.4763 2.1526 0.0247
v  0.4510 2.1526 0.1682
v  0.5797 2.1526 0.2366
v  0.9812 1.1014 -0.2985
v  1.0819 1.2048 -0.1978
v  0.8246 1.2129 0.0241
v  0.7416 1.1276 -0.0589
v  1.0434 1.3722 -0.2363
v  0.7928 1.3509 -0.0076
v  0.9190 1.3722 -0.3607
v  0.6903 1.3509 -0.1102
v  0.8805 1.2048 -0.3992
v  0.6586 1.2129 -0.1419
v  1.1490 1.1763 -0.4663
v  1.2281 1.2905 -0.2740
v  1.0848 1.4753 -0.2343
v  0.9170 1.4753 -0.4021
v  0.9567 1.2905 -0.5455
v  1.2525 1.5236 -0.5698
v  1.2880 1.5553 -0.3670
v  1.1072 1.6065 -0.2772
v  0.9599 1.6065 -0.4245
v  1.0720 1.5220 -0.5663
v  1.1974 1.6515 -0.5097
v  1.2103 1.6631 -0.4357
v  1.1444 1.6818 -0.4030
v  1.0906 1.6818 -0.4567
v  1.1234 1.6631 -0.5227
# 205 vertices

vn -0.2563 0.1402 0.9564
vn 0.8304 0.1402 0.5393
vn 0.8244 0.0935 0.5582
vn -0.2364 0.0862 0.9678
vn 0.7695 0.1402 -0.6231
vn 0.7952 0.0001 -0.6063
vn -0.3548 0.1402 -0.9244
vn -0.3501 -0.0721 -0.9339
vn -0.9888 0.1402 0.0518
vn -0.9966 -0.0180 0.0807
vn 0.8651 -0.0726 0.4963
vn -0.2933 -0.1156 0.9490
vn 0.7384 -0.0630 -0.6714
vn -0.3449 -0.0794 -0.9353
vn -0.9894 -0.1435 -0.0211
vn 0.8363 -0.1682 0.5218
vn -0.2581 -0.2411 0.9356
vn 0.7750 0.0351 -0.6310
vn -0.3574 0.0878 -0.9298
vn -0.9958 -0.0829 0.0384
vn 0.8380 -0.0561 0.5427
vn -0.2586 -0.1292 0.9573
vn 0.7766 0.1476 -0.6125
vn -0.3581 0.2004 -0.9119
vn -0.9979 0.0294 0.0583
vn 0.7896 0.2428 0.5635
vn -0.2437 0.1739 0.9541
vn 0.7317 0.4347 -0.5250
vn -0.3374 0.4845 -0.8071
vn -0.9402 0.3233 0.1070
vn -0.1528 0.6960 0.7016
vn 0.4950 0.7391 0.4568
vn 0.4587 0.8595 -0.2256
vn -0.2115 0.8906 -0.4025
vn -0.5894 0.7896 0.1706
vn -0.0540 -0.9981 0.0285
vn -0.9086 -0.3550 -0.2201
vn -0.8959 -0.2478 -0.3687
vn 0.0200 -0.9689 -0.2466
vn -0.5575 0.7278 -0.3994
vn -0.5461 0.8336 -0.0828
vn 0.7426 0.6673 -0.0563
vn 0.5861 0.7810 0.2159
vn 0.8644 -0.4375 0.2478
vn 0.9359 -0.3331 0.1147
vn -0.1827 -0.8161 0.5483
vn -0.9532 -0.3012 -0.0255
vn -0.3992 0.4342 -0.8075
vn 0.7811 0.3793 -0.4960
vn 0.8119 -0.3833 0.4403
vn -0.2562 -0.3055 0.9171
vn -0.9937 0.0330 0.1073
vn -0.3632 0.4895 -0.7928
vn 0.7474 0.4378 -0.4997
vn 0.8106 -0.0510 0.5834
vn -0.2073 0.4550 0.8660
vn -0.6848 0.6543 0.3208
vn -0.2805 0.9248 -0.2570
vn 0.4498 0.8908 -0.0643
vn 0.4919 0.5996 0.6313
vn -0.4951 0.1402 0.8575
vn 0.6625 0.1402 0.7358
vn 0.6677 0.0016 0.7445
vn -0.4985 0.0012 0.8669
vn 0.9045 0.1402 -0.4027
vn 0.9128 0.0084 -0.4083
vn -0.1035 0.1402 -0.9847
vn -0.1041 0.0138 -0.9945
vn -0.9685 0.1402 -0.2059
vn -0.9779 0.0068 -0.2089
vn 0.6474 -0.0388 0.7612
vn -0.4819 -0.0274 0.8758
vn 0.9227 -0.1388 -0.3597
vn -0.1085 -0.1843 -0.9769
vn -0.9797 -0.1225 -0.1586
vn 0.6672 0.0548 0.7428
vn -0.4986 0.0761 0.8635
vn 0.9110 -0.1443 -0.3864
vn -0.1042 -0.2461 -0.9636
vn -0.9754 -0.1099 -0.1912
vn 0.6686 0.1674 0.7245
vn -0.4996 0.1887 0.8454
vn 0.9128 -0.0321 -0.4070
vn -0.1044 -0.1341 -0.9854
vn -0.9774 0.0024 -0.2114
vn 0.6300 0.4533 0.6306
vn -0.4708 0.4734 0.7445
vn 0.8601 0.2653 -0.4356
vn -0.0984 0.1692 -0.9807
vn -0.9210 0.2978 -0.2513
vn -0.2951 0.8837 0.3632
vn 0.3950 0.8711 0.2918
vn 0.5392 0.7533 -0.3766
vn -0.0617 0.6930 -0.7183
vn -0.5773 0.7736 -0.2610
vn -0.1890 -0.9479 0.2566
vn -0.4653 -0.5201 -0.7163
vn -0.3307 -0.4583 -0.8250
vn 0.0700 -0.9875 0.1410
vn 0.0398 0.5054 -0.8620
vn -0.1776 0.6964 -0.6953
vn 0.6086 0.7173 0.3394
vn 0.3177 0.8809 0.3508
vn 0.3105 -0.2312 0.9220
vn 0.4708 -0.1599 0.8677
vn -0.6396 -0.6459 0.4168
vn -0.6335 -0.4202 -0.6497
vn 0.4103 0.1328 -0.9022
vn 0.9267 0.3251 0.1884
vn 0.1388 -0.1326 0.9814
vn -0.8972 -0.0668 0.4366
vn -0.7153 -0.0707 -0.6952
vn 0.4297 0.1942 -0.8818
vn 0.9156 0.3752 0.1444
vn 0.0741 0.2233 0.9719
vn -0.7261 0.6482 0.2295
vn -0.5951 0.6209 -0.5102
vn 0.1366 0.7695 -0.6239
vn 0.4561 0.8885 0.0509
vn -0.0803 0.8127 0.5772
vn 0.1340 -0.9909 0.0125
vn 0.7579 -0.2908 0.5839
vn 0.6767 -0.1873 0.7120
vn -0.0497 -0.9716 0.2314
vn 0.2856 0.7603 0.5834
vn 0.3992 0.8700 0.2892
vn -0.7454 0.6101 -0.2686
vn -0.4986 0.7392 -0.4527
vn -0.6482 -0.4957 -0.5780
vn -0.7760 -0.3990 -0.4884
vn 0.4537 -0.7916 -0.4094
vn 0.8754 -0.2308 0.4247
vn -0.0061 0.4494 0.8933
vn -0.9422 0.3130 0.1198
vn -0.5245 -0.4347 -0.7321
vn 0.6363 -0.2712 -0.7222
vn 0.9428 0.1075 0.3155
vn -0.0367 0.5020 0.8641
vn -0.9175 0.3737 0.1362
vn -0.4881 -0.1010 -0.8670
vn 0.5150 0.4828 -0.7083
vn 0.7061 0.7079 -0.0171
vn 0.0794 0.9387 0.3356
vn -0.4998 0.8543 -0.1430
vn -0.2271 0.5719 -0.7883
vn 0.9751 0.1402 0.1719
vn 0.4648 0.1402 -0.8742
vn 0.4695 0.0000 -0.8829
vn 0.9848 0.0000 0.1736
vn -0.6878 0.1402 -0.7122
vn -0.6947 0.0000 -0.7193
vn -0.8899 0.1402 0.4340
vn -0.8988 -0.0000 0.4384
vn 0.1378 0.1402 0.9805
vn 0.1392 -0.0000 0.9903
vn 0.4573 -0.2260 -0.8601
vn 0.9593 -0.2260 0.1692
vn -0.6767 -0.2260 -0.7007
vn -0.8755 -0.2260 0.4270
vn 0.1356 -0.2260 0.9647
vn 0.4612 -0.1864 -0.8675
vn 0.9676 -0.1864 0.1706
vn -0.6825 -0.1864 -0.7067
vn -0.8830 -0.1864 0.4307
vn 0.1367 -0.1864 0.9729
vn 0.4689 0.0494 -0.8819
vn 0.9836 0.0494 0.1734
vn -0.6938 0.0494 -0.7185
vn -0.8977 0.0494 0.4378
vn 0.1390 0.0494 0.9891
vn 0.4232 0.4329 -0.7959
vn 0.8878 0.4329 0.1565
vn -0.6262 0.4329 -0.6485
vn -0.8102 0.4329 0.3952
vn 0.1255 0.4329 0.8927
vn 0.4830 0.8715 0.0852
vn 0.2303 0.8715 -0.4331
vn -0.3407 0.8715 -0.3528
vn -0.4408 0.8715 0.2150
vn 0.0683 0.8715 0.4857
vn 0.0754 -0.9943 -0.0754
vn 0.5949 -0.4399 0.6728
vn 0.6158 -0.3081 0.7251
vn -0.0546 -0.9970 0.0546
vn 0.0456 0.5010 0.8642
vn 0.3597 0.8066 0.4690
vn -0.8642 0.5010 -0.0456
vn -0.4690 0.8066 -0.3597
vn -0.6728 -0.4399 -0.5949
vn -0.7251 -0.3081 -0.6158
vn 0.4659 -0.7393 -0.4862
vn 0.7953 -0.3059 0.5233
vn -0.1087 0.2778 0.9545
vn -0.9474 0.3165 0.0469
vn -0.5202 -0.2686 -0.8107
vn 0.6686 0.0470 -0.7421
vn 0.9104 0.2575 0.3238
vn -0.0602 0.5882 0.8065
vn -0.8031 0.5953 -0.0269
vn -0.3003 0.1782 -0.9370
vn 0.4444 0.7131 -0.5421
vn 0.5847 0.8089 0.0617
vn 0.1024 0.9484 0.3002
vn -0.3229 0.9300 -0.1755
vn -0.1341 0.7196 -0.6813
# 205 vertex normals

vt 0.7500 0.0000 0.0000
vt 0.9500 0.0000 0.0000
vt 0.9500 0.2000 0.0000
vt 0.7500 0.2000 0.0000
vt 1.1500 0.0000 0.0000
vt 1.1500 0.2000 0.0000
vt 0.1500 0.0000 0.0000
vt 0.3500 0.0000 0.0000
vt 0.3500 0.2000 0.0000
vt 0.1500 0.2000 0.0000
vt 0.5500 0.0000 0.0000
vt 0.5500 0.2000 0.0000
vt 0.9500 0.4000 0.0000
vt 0.7500 0.4000 0.0000
vt 1.1500 0.4000 0.0000
vt 0.3500 0.4000 0.0000
vt 0.1500 0.4000 0.0000
vt 0.5500 0.4000 0.0000
vt 0.9500 0.6000 0.0000
vt 0.7500 0.6000 0.0000
vt 1.1500 0.6000 0.0000
vt 0.3500 0.6000 0.0000
vt 0.1500 0.6000 0.0000
vt 0.5500 0.6000 0.0000
vt 0.9500 0.8000 0.0000
vt 0.7500 0.8000 0.0000
vt 1.1500 0.8000 0.0000
vt 0.3500 0.8000 0.0000
vt 0.1500 0.8000 0.0000
vt 0.5500 0.8000 0.0000
vt 0.9500 1.0000 0.0000
vt 0.7500 1.0000 0.0000
vt 1.1500 1.0000 0.0000
vt 0.3500 1.0000 0.0000
vt 0.1500 1.0000 0.0000
vt 0.5500 1.0000 0.0000
vt 0.5000 1.0000 0.0000
vt 0.0245 0.6545 0.0000
vt 0.2061 0.0955 0.0000
vt 0.7939 0.0955 0.0000
vt 0.9755 0.6545 0.0000
# 41 texture coords

o Cactus
g Cactus
s off
f 1/1/1 2/2/2 3/3/3 
f 3/3/3 4/4/4 1/1/1 
f 2/2/2 5/5/5 6/6/6 
f 6/6/6 3/3/3 2/2/2 
f 5/7/5 7/8/7 8/9/8 
f 8/9/8 6/10/6 5/7/5 
f 7/8/7 9/11/9 10/12/10 
f 10/12/10 8/9/8 7/8/7 
f 9/11/9 1/1/1 4/4/4 
f 4/4/4 10/12/10 9/11/9 
f 4/4/4 3/3/3 11/13/11 
f 11/13/11 12/14/12 4/4/4 
f 3/3/3 6/6/6 13/15/13 
f 13/15/13 11/13/11 3/3/3 
f 6/10/6 8/9/8 14/16/14 
f 14/16/14 13/17/13 6/10/6 
f 8/9/8 10/12/10 15/18/15 
f 15/18/15 14/16/14 8/9/8 
f 10/12/10 4/4/4 12/14/12 
f 12/14/12 15/18/15 10/12/10 
f 12/14/12 11/13/11 16/19/16 
f 16/19/16 17/20/17 12/14/12 
f 11/13/11 13/15/13 18/21/18 
f 18/21/18 16/19/16 11/13/11 
f 13/17/13 14/16/14 19/22/19 
f 19/22/19 18/23/18 13/17/13 
f 14/16/14 15/18/15 20/24/20 
f 20/24/20 19/22/19 14/16/14 
f 15/18/15 12/14/12 17/20/17 
f 17/20/17 20/24/20 15/18/15 
f 17/20/17 16/19/16 21/25/21 
f 21/25/21 22/26/22 17/20/17 
f 16/19/16 18/21/18 23/27/23 
f 23/27/23 21/25/21 16/19/16 
f 18/23/18 19/22/19 24/28/24 
f 24/28/24 23/29/23 18/23/18 
f 19/22/19 20/24/20 25/30/25 
f 25/30/25 24/28/24 19/22/19 
f 20/24/20 17/20/17 22/26/22 
f 22/26/22 25/30/25 20/24/20 
f 22/26/22 21/25/21 26/31/26 
f 26/31/26 27/32/27 22/26/22 
f 21/25/21 23/27/23 28/33/28 
f 28/33/28 26/31/26 21/25/21 
f 23/29/23 24/28/24 29/34/29 
f 29/34/29 28/35/28 23/29/23 
f 24/28/24 25/30/25 30/36/30 
f 30/36/30 29/34/29 24/28/24 
f 25/30/25 22/26/22 27/32/27 
f 27/32/27 30/36/30 25/30/25 
f 31/37/31 32/38/32 33/39/33 
f 31/37/31 33/39/33 34/40/34 
f 31/37/31 34/40/34 35/41/35 
f 28/35/28 29/34/29 34/40/34 
f 34/40/34 33/39/33 28/35/28 
f 29/34/29 30/36/30 35/41/35 
f 35/41/35 34/40/34 29/34/29 
f 30/36/30 27/32/27 31/37/31 
f 31/37/31 35/41/35 30/36/30 
f 27/32/27 26/31/26 32/38/32 
f 32/38/32 31/37/31 27/32/27 
f 26/31/26 28/33/28 33/39/33 
f 33/39/33 32/38/32 26/31/26 
f 36/26/36 37/25/37 38/31/38 
f 38/31/38 39/32/39 36/26/36 
f 37/25/37 40/27/40 41/33/41 
f 41/33/41 38/31/38 37/25/37 
f 40/29/40 42/28/42 43/34/43 
f 43/34/43 41/35/41 40/29/40 
f 42/28/42 44/30/44 45/36/45 
f 45/36/45 43/34/43 42/28/42 
f 44/30/44 36/26/36 39/32/39 
f 39/32/39 45/36/45 44/30/44 
f 37/25/37 36/26/36 46/26/46 
f 46/26/46 47/25/47 37/25/37 
f 40/27/40 37/25/37 47/25/47 
f 47/25/47 48/27/48 40/27/40 
f 42/28/42 40/29/40 48/29/48 
f 48/29/48 49/28/49 42/28/42 
f 44/30/44 42/28/42 49/28/49 
f 49/28/49 50/30/50 44/30/44 
f 36/26/36 44/30/44 50/30/50 
f 50/30/50 46/26/46 36/26/36 
f 47/25/47 46/26/46 51/26/51 
f 51/26/51 52/25/52 47/25/47 
f 48/27/48 47/25/47 52/25/52 
f 52/25/52 53/27/53 48/27/48 
f 49/28/49 48/29/48 53/29/53 
f 53/29/53 54/28/54 49/28/49 
f 50/30/50 49/28/49 54/28/54 
f 54/28/54 55/30/55 50/30/50 
f 46/26/46 50/30/50 55/30/55 
f 55/30/55 51/26/51 46/26/46 
f 52/25/52 51/26/51 56/26/56 
f 56/26/56 57/25/57 52/25/52 
f 53/27/53 52/25/52 57/25/57 
f 57/25/57 58/27/58 53/27/53 
f 54/28/54 53/29/53 58/29/58 
f 58/29/58 59/28/59 54/28/54 
f 55/30/55 54/28/54 59/28/59 
f 59/28/59 60/30/60 55/30/55 
f 51/26/51 55/30/55 60/30/60 
f 60/30/60 56/26/56 51/26/51 
f 56/26/56 60/30/60 59/28/59 
f 56/26/56 59/28/59 58/29/58 
f 56/26/56 58/29/58 57/25/57 
f 61/1/61 62/2/62 63/3/63 
f 63/3/63 64/4/64 61/1/61 
f 62/2/62 65/5/65 66/6/66 
f 66/6/66 63/3/63 62/2/62 
f 65/7/65 67/8/67 68/9/68 
f 68/9/68 66/10/66 65/7/65 
f 67/8/67 69/11/69 70/12/70 
f 70/12/70 68/9/68 67/8/67 
f 69/11/69 61/1/61 64/4/64 
f 64/4/64 70/12/70 69/11/69 
f 64/4/64 63/3/63 71/13/71 
f 71/13/71 72/14/72 64/4/64 
f 63/3/63 66/6/66 73/15/73 
f 73/15/73 71/13/71 63/3/63 
f 66/10/66 68/9/68 74/16/74 
f 74/16/74 73/17/73 66/10/66 
f 68/9/68 70/12/70 75/18/75 
f 75/18/75 74/16/74 68/9/68 
f 70/12/70 64/4/64 72/14/72 
f 72/14/72 75/18/75 70/12/70 
f 72/14/72 71/13/71 76/19/76 
f 76/19/76 77/20/77 72/14/72 
f 71/13/71 73/15/73 78/21/78 
f 78/21/78 76/19/76 71/13/71 
f 73/17/73 74/16/74 79/22/79 
f 79/22/79 78/23/78 73/17/73 
f 74/16/74 75/18/75 80/24/80 
f 80/24/80 79/22/79 74/16/74 
f 75/18/75 72/14/72 77/20/77 
f 77/20/77 80/24/80 75/18/75 
f 77/20/77 76/19/76 81/25/81 
f 81/25/81 82/26/82 77/20/77 
f 76/19/76 78/21/78 83/27/83 
f 83/27/83 81/25/81 76/19/76 
f 78/23/78 79/22/79 84/28/84 
f 84/28/84 83/29/83 78/23/78 
f 79/22/79 80/24/80 85/30/85 
f 85/30/85 84/28/84 79/22/79 
f 80/24/80 77/20/77 82/26/82 
f 82/26/82 85/30/85 80/24/80 
f 82/26/82 81/25/81 86/31/86 
f 86/31/86 87/32/87 82/26/82 
f 81/25/81 83/27/83 88/33/88 
f 88/33/88 86/31/86 81/25/81 
f 83/29/83 84/28/84 89/34/89 
f 89/34/89 88/35/88 83/29/83 
f 84/28/84 85/30/85 90/36/90 
f 90/36/90 89/34/89 84/28/84 
f 85/30/85 82/26/82 87/32/87 
f 87/32/87 90/36/90 85/30/85 
f 91/37/91 92/38/92 93/39/93 
f 91/37/91 93/39/93 94/40/94 
f 91/37/91 94/40/94 95/41/95 
f 88/35/88 89/34/89 94/40/94 
f 94/40/94 93/39/93 88/35/88 
f 89/34/89 90/36/90 95/41/95 
f 95/41/95 94/40/94 89/34/89 
f 90/36/90 87/32/87 91/37/91 
f 91/37/91 95/41/95 90/36/90 
f 87/32/87 86/31/86 92/38/92 
f 92/38/92 91/37/91 87/32/87 
f 86/31/86 88/33/88 93/39/93 
f 93/39/93 92/38/92 86/31/86 
f 96/26/96 97/25/97 98/31/98 
f 98/31/98 99/32/99 96/26/96 
f 97/25/97 100/27/100 101/33/101 
f 101/33/101 98/31/98 97/25/97 
f 100/29/100 102/28/102 103/34/103 
f 103/34/103 101/35/101 100/29/100 
f 102/28/102 104/30/104 105/36/105 
f 105/36/105 103/34/103 102/28/102 
f 104/30/104 96/26/96 99/32/99 
f 99/32/99 105/36/105 104/30/104 
f 97/25/97 96/26/96 106/26/106 
f 106/26/106 107/25/107 97/25/97 
f 100/27/100 97/25/97 107/25/107 
f 107/25/107 108/27/108 100/27/100 
f 102/28/102 100/29/100 108/29/108 
f 108/29/108 109/28/109 102/28/102 
f 104/30/104 102/28/102 109/28/109 
f 109/28/109 110/30/110 104/30/104 
f 96/26/96 104/30/104 110/30/110 
f 110/30/110 106/26/106 96/26/96 
f 107/25/107 106/26/106 111/26/111 
f 111/26/111 112/25/112 107/25/107 
f 108/27/108 107/25/107 112/25/112 
f 112/25/112 113/27/113 108/27/108 
f 109/28/109 108/29/108 113/29/113 
f 113/29/113 114/28/114 109/28/109 
f 110/30/110 109/28/109 114/28/114 
f 114/28/114 115/30/115 110/30/110 
f 106/26/106 110/30/110 115/30/115 
f 115/30/115 111/26/111 106/26/106 
f 112/25/112 111/26/111 116/26/116 
f 116/26/116 117/25/117 112/25/112 
f 113/27/113 112/25/112 117/25/117 
f 117/25/117 118/27/118 113/27/113 
f 114/28/114 113/29/113 118/29/118 
f 118/29/118 119/28/119 114/28/114 
f 115/30/115 114/28/114 119/28/119 
f 119/28/119 120/30/120 115/30/115 
f 111/26/111 115/30/115 120/30/120 
f 120/30/120 116/26/116 111/26/111 
f 116/26/116 120/30/120 119/28/119 
f 116/26/116 119/28/119 118/29/118 
f 116/26/116 118/29/118 117/25/117 
f 121/26/121 122/25/122 123/31/123 
f 123/31/123 124/32/124 121/26/121 
f 122/25/122 125/27/125 126/33/126 
f 126/33/126 123/31/123 122/25/122 
f 125/29/125 127/28/127 128/34/128 
f 128/34/128 126/35/126 125/29/125 
f 127/28/127 129/30/129 130/36/130 
f 130/36/130 128/34/128 127/28/127 
f 129/30/129 121/26/121 124/32/124 
f 124/32/124 130/36/130 129/30/129 
f 122/25/122 121/26/121 131/26/131 
f 131/26/131 132/25/132 122/25/122 
f 125/27/125 122/25/122 132/25/132 
f 132/25/132 133/27/133 125/27/125 
f 127/28/127 125/29/125 133/29/133 
f 133/29/133 134/28/134 127/28/127 
f 129/30/129 127/28/127 134/28/134 
f 134/28/134 135/30/135 129/30/129 
f 121/26/121 129/30/129 135/30/135 
f 135/30/135 131/26/131 121/26/121 
f 132/25/132 131/26/131 136/26/136 
f 136/26/136 137/25/137 132/25/132 
f 133/27/133 132/25/132 137/25/137 
f 137/25/137 138/27/138 133/27/133 
f 134/28/134 133/29/133 138/29/138 
f 138/29/138 139/28/139 134/28/134 
f 135/30/135 134/28/134 139/28/139 
f 139/28/139 140/30/140 135/30/135 
f 131/26/131 135/30/135 140/30/140 
f 140/30/140 136/26/136 131/26/131 
f 137/25/137 136/26/136 141/26/141 
f 141/26/141 142/25/142 137/25/137 
f 138/27/138 137/25/137 142/25/142 
f 142/25/142 143/27/143 138/27/138 
f 139/28/139 138/29/138 143/29/143 
f 143/29/143 144/28/144 139/28/139 
f 140/30/140 139/28/139 144/28/144 
f 144/28/144 145/30/145 140/30/140 
f 136/26/136 140/30/140 145/30/145 
f 145/30/145 141/26/141 136/26/136 
f 141/26/141 145/30/145 144/28/144 
f 141/26/141 144/28/144 143/29/143 
f 141/26/141 143/29/143 142/25/142 
f 146/1/146 147/2/147 148/3/148 
f 148/3/148 149/4/149 146/1/146 
f 147/2/147 150/5/150 151/6/151 
f 151/6/151 148/3/148 147/2/147 
f 150/7/150 152/8/152 153/9/153 
f 153/9/153 151/10/151 150/7/150 
f 152/8/152 154/11/154 155/12/155 
f 155/12/155 153/9/153 152/8/152 
f 154/11/154 146/1/146 149/4/149 
f 149/4/149 155/12/155 154/11/154 
f 149/4/149 148/3/148 156/13/156 
f 156/13/156 157/14/157 149/4/149 
f 148/3/148 151/6/151 158/15/158 
f 158/15/158 156/13/156 148/3/148 
f 151/10/151 153/9/153 159/16/159 
f 159/16/159 158/17/158 151/10/151 
f 153/9/153 155/12/155 160/18/160 
f 160/18/160 159/16/159 153/9/153 
f 155/12/155 149/4/149 157/14/157 
f 157/14/157 160/18/160 155/12/155 
f 157/14/157 156/13/156 161/19/161 
f 161/19/161 162/20/162 157/14/157 
f 156/13/156 158/15/158 163/21/163 
f 163/21/163 161/19/161 156/13/156 
f 158/17/158 159/16/159 164/22/164 
f 164/22/164 163/23/163 158/17/158 
f 159/16/159 160/18/160 165/24/165 
f 165/24/165 164/22/164 159/16/159 
f 160/18/160 157/14/157 162/20/162 
f 162/20/162 165/24/165 160/18/160 
f 162/20/162 161/19/161 166/25/166 
f 166/25/166 167/26/167 162/20/162 
f 161/19/161 163/21/163 168/27/168 
f 168/27/168 166/25/166 161/19/161 
f 163/23/163 164/22/164 169/28/169 
f 169/28/169 168/29/168 163/23/163 
f 164/22/164 165/24/165 170/30/170 
f 170/30/170 169/28/169 164/22/164 
f 165/24/165 162/20/162 167/26/167 
f 167/26/167 170/30/170 165/24/165 
f 167/26/167 166/25/166 171/31/171 
f 171/31/171 172/32/172 167/26/167 
f 166/25/166 168/27/168 173/33/173 
f 173/33/173 171/31/171 166/25/166 
f 168/29/168 169/28/169 174/34/174 
f 174/34/174 173/35/173 168/29/168 
f 169/28/169 170/30/170 175/36/175 
f 175/36/175 174/34/174 169/28/169 
f 170/30/170 167/26/167 172/32/172 
f 172/32/172 175/36/175 170/30/170 
f 176/37/176 177/38/177 178/39/178 
f 176/37/176 178/39/178 179/40/179 
f 176/37/176 179/40/179 180/41/180 
f 173/35/173 174/34/174 179/40/179 
f 179/40/179 178/39/178 173/35/173 
f 174/34/174 175/36/175 180/41/180 
f 180/41/180 179/40/179 174/34/174 
f 175/36/175 172/32/172 176/37/176 
f 176/37/176 180/41/180 175/36/175 
f 172/32/172 171/31/171 177/38/177 
f 177/38/177 176/37/176 172/32/172 
f 171/31/171 173/33/173 178/39/178 
f 178/39/178 177/38/177 171/31/171 
f 181/26/181 182/25/182 183/31/183 
f 183/31/183 184/32/184 181/26/181 
f 182/25/182 185/27/185 186/33/186 
f 186/33/186 183/31/183 182/25/182 
f 185/29/185 187/28/187 188/34/188 
f 188/34/188 186/35/186 185/29/185 
f 187/28/187 189/30/189 190/36/190 
f 190/36/190 188/34/188 187/28/187 
f 189/30/189 181/26/181 184/32/184 
f 184/32/184 190/36/190 189/30/189 
f 182/25/182 181/26/181 191/26/191 
f 191/26/191 192/25/192 182/25/182 
f 185/27/185 182/25/182 192/25/192 
f 192/25/192 193/27/193 185/27/185 
f 187/28/187 185/29/185 193/29/193 
f 193/29/193 194/28/194 187/28/187 
f 189/30/189 187/28/187 194/28/194 
f 194/28/194 195/30/195 189/30/189 
f 181/26/181 189/30/189 195/30/195 
f 195/30/195 191/26/191 181/26/181 
f 192/25/192 191/26/191 196/26/196 
f 196/26/196 197/25/197 192/25/192 
f 193/27/193 192/25/192 197/25/197 
f 197/25/197 198/27/198 193/27/193 
f 194/28/194 193/29/193 198/29/198 
f 198/29/198 199/28/199 194/28/194 
f 195/30/195 194/28/194 199/28/199 
f 199/28/199 200/30/200 195/30/195 
f 191/26/191 195/30/195 200/30/200 
f 200/30/200 196/26/196 191/26/191 
f 197/25/197 196/26/196 201/26/201 
f 201/26/201 202/25/202 197/25/197 
f 198/27/198 197/25/197 202/25/202 
f 202/25/202 203/27/203 198/27/198 
f 199/28/199 198/29/198 203/29/203 
f 203/29/203 204/28/204 199/28/199 
f 200/30/200 199/28/199 204/28/204 
f 204/28/204 205/30/205 200/30/200 
f 196/26/196 200/30/200 205/30/205 
f 205/30/205 201/26/201 196/26/196 
f 201/26/201 205/30/205 204/28/204 
f 201/26/201 204/28/204 203/29/203 
f 201/26/201 203/29/203 202/25/202 
# 361 faces

