# 3ds Max Wavefront OBJ Exporter v0.97b - (c)2007 guruware
# File Created: 23.05.2018 16:16:44

#
# object Crater
#

v  3.3340 0.0000 -0.2451
v  3.0046 0.0000 -0.9300
v  2.4177 0.2089 -0.7705
v  2.5331 0.1243 -0.1439
v  2.8915 0.0000 -1.8434
v  2.1476 0.1243 -1.3724
v  2.4175 0.0000 -2.4925
v  1.7524 0.1243 -1.8928
v  1.4157 0.0000 -2.6678
v  1.2237 0.1243 -2.2589
v  0.7660 0.0000 -3.0890
v  0.6245 0.1243 -2.5439
v  0.0044 0.0000 -3.3261
v  -0.0131 0.1243 -2.6966
v  -0.7558 0.0000 -3.0340
v  -0.6589 0.1243 -2.5402
v  -1.9083 0.0000 -3.2447
v  -1.3346 0.1243 -2.4075
v  -2.2026 0.0000 -2.9582
v  -1.8793 0.1243 -2.0614
v  -2.6593 0.0000 -1.6519
v  -2.2056 0.2471 -1.3985
v  -3.4232 0.0000 -0.6518
v  -2.5265 0.1243 -0.7813
v  -3.3549 0.0000 -0.1559
v  -2.5838 0.1842 -0.1231
v  -2.7661 -0.0000 0.6057
v  -2.4371 0.1243 0.5328
v  -2.7814 -0.0000 1.5734
v  -2.2657 0.1243 1.2067
v  -2.0808 -0.0000 2.0827
v  -1.8100 0.1243 1.6708
v  -1.6734 -0.0000 3.0140
v  -1.2975 0.1855 2.1752
v  -1.4217 -0.0000 3.1319
v  -0.6692 -0.0000 2.7573
v  -0.6533 0.1243 2.2494
v  0.0756 -0.0000 3.0746
v  0.0142 0.1243 2.4174
v  0.8691 -0.0000 2.9877
v  0.6638 0.1243 2.3694
v  1.4610 -0.0000 2.4505
v  1.2667 0.1243 2.0967
v  2.6018 -0.0000 2.1748
v  2.0150 0.0408 1.7631
v  2.9594 -0.0000 1.5110
v  2.5513 0.1243 1.2159
v  2.9545 -0.0000 0.6040
v  2.6757 0.2073 0.5561
v  2.3303 0.1331 -0.1529
v  2.3377 0.2177 -0.7633
v  1.7839 0.0000 -0.6572
v  1.7666 -0.0000 -0.2379
v  1.9755 0.1331 -1.2546
v  1.5314 0.0000 -0.9366
v  1.6039 0.1331 -1.7443
v  1.1212 0.0000 -1.2404
v  1.1261 0.1331 -2.0911
v  0.8399 0.0000 -1.5171
v  0.5481 0.1331 -2.3504
v  0.4167 0.0000 -1.6566
v  -0.0137 0.1331 -2.5502
v  0.0926 0.0000 -1.7361
v  -0.6334 0.1331 -2.4110
v  -0.3011 0.0000 -1.7384
v  -1.2656 0.1331 -2.2833
v  -0.7265 0.0000 -1.7423
v  -1.7650 0.1331 -1.9352
v  -1.1338 0.0000 -1.4779
v  -2.0371 0.2559 -1.3114
v  -1.2399 0.0000 -1.0334
v  -2.3681 0.1331 -0.7399
v  -1.5827 0.0000 -0.5625
v  -2.4223 0.1930 -0.1200
v  -1.6253 -0.0000 -0.0591
v  -2.3143 0.1331 0.5009
v  -1.4991 -0.0000 0.4908
v  -2.1041 0.1331 1.0974
v  -1.2769 -0.0000 0.8161
v  -1.6998 0.1331 1.5617
v  -1.0381 -0.0000 1.0769
v  -1.2254 0.1930 2.0038
v  -0.7921 -0.0000 1.3710
v  -0.6066 0.1331 2.0730
v  -0.4841 -0.0000 1.6007
v  0.0054 0.1331 2.1947
v  0.1411 -0.0000 1.4624
v  0.6033 0.1331 2.1995
v  0.4880 -0.0000 1.5871
v  1.1827 0.1331 1.9705
v  0.8043 -0.0000 1.4475
v  1.7909 0.0496 1.6337
v  1.1468 -0.0000 1.1927
v  2.2984 0.1331 1.1261
v  1.3631 -0.0000 0.8593
v  2.4437 0.2161 0.5068
v  1.6224 -0.0000 0.2922
# 97 vertices

vn 0.2591 0.9658 -0.0113
vn 0.2133 0.9752 -0.0592
vn 0.1288 0.9913 -0.0275
vn 0.1616 0.9867 -0.0158
vn 0.1476 0.9848 -0.0920
vn 0.0902 0.9918 -0.0900
vn 0.0942 0.9880 -0.1226
vn 0.0617 0.9941 -0.0891
vn 0.0916 0.9759 -0.1981
vn 0.0585 0.9908 -0.1224
vn 0.0835 0.9752 -0.2047
vn 0.0554 0.9899 -0.1307
vn -0.0030 0.9787 -0.2054
vn -0.0040 0.9898 -0.1422
vn -0.0277 0.9796 -0.1988
vn -0.0214 0.9912 -0.1307
vn -0.0463 0.9900 -0.1334
vn -0.0265 0.9937 -0.1085
vn -0.1177 0.9863 -0.1156
vn -0.1000 0.9876 -0.1207
vn -0.2444 0.9615 -0.1258
vn -0.1330 0.9889 -0.0662
vn -0.2083 0.9759 -0.0656
vn -0.1629 0.9860 -0.0363
vn -0.2114 0.9770 0.0269
vn -0.1446 0.9888 0.0372
vn -0.2654 0.9585 0.1045
vn -0.1615 0.9836 0.0807
vn -0.1979 0.9743 0.1073
vn -0.1418 0.9877 0.0654
vn -0.2003 0.9701 0.1368
vn -0.1306 0.9883 0.0785
vn -0.1395 0.9777 0.1569
vn -0.0590 0.9920 0.1114
vn -0.0082 0.9807 0.1953
vn 0.0106 0.9769 0.2133
vn 0.0291 0.9905 0.1345
vn -0.0194 0.9801 0.1974
vn -0.0193 0.9912 0.1306
vn 0.0702 0.9790 0.1911
vn 0.0456 0.9908 0.1275
vn 0.1081 0.9811 0.1605
vn 0.0868 0.9931 0.0784
vn 0.0791 0.9890 0.1252
vn 0.0533 0.9934 0.1018
vn 0.1960 0.9745 0.1093
vn 0.1479 0.9824 0.1141
vn 0.3472 0.9371 0.0356
vn 0.2011 0.9792 0.0268
vn -0.1119 0.9937 -0.0010
vn -0.1024 0.9945 0.0216
vn -0.1818 0.9814 0.0615
vn -0.1423 0.9898 -0.0008
vn -0.1032 0.9944 0.0243
vn -0.1116 0.9911 0.0729
vn -0.0467 0.9976 0.0517
vn -0.0659 0.9952 0.0722
vn -0.0343 0.9977 0.0588
vn -0.0576 0.9937 0.0959
vn -0.0222 0.9977 0.0640
vn -0.0329 0.9953 0.0914
vn -0.0040 0.9993 0.0380
vn -0.0116 0.9957 0.0924
vn 0.0049 0.9980 0.0627
vn 0.0115 0.9959 0.0902
vn 0.0191 0.9990 0.0405
vn 0.0304 0.9938 0.1067
vn 0.0903 0.9952 -0.0383
vn 0.1158 0.9924 0.0408
vn 0.1004 0.9934 0.0555
vn 0.0994 0.9941 0.0428
vn 0.0403 0.9977 0.0542
vn 0.1113 0.9919 0.0617
vn 0.0681 0.9977 -0.0025
vn 0.1114 0.9938 -0.0055
vn 0.0569 0.9982 0.0208
vn 0.0938 0.9954 -0.0215
vn 0.0346 0.9991 -0.0239
vn 0.0690 0.9964 -0.0484
vn 0.0176 0.9978 -0.0637
vn 0.0558 0.9958 -0.0728
vn 0.0391 0.9974 -0.0607
vn 0.0636 0.9922 -0.1074
vn 0.0535 0.9950 -0.0845
vn 0.0407 0.9894 -0.1390
vn 0.0028 0.9972 -0.0741
vn 0.0054 0.9964 -0.0843
vn -0.0060 0.9982 -0.0597
vn -0.0142 0.9926 -0.1210
vn 0.0075 0.9964 -0.0842
vn -0.0273 0.9948 -0.0978
vn -0.0076 0.9998 -0.0189
vn -0.0347 0.9981 -0.0511
vn -0.0756 0.9941 0.0776
vn -0.0786 0.9969 0.0004
vn -0.0738 0.9970 -0.0215
vn -0.1117 0.9936 -0.0179
# 97 vertex normals

vt 0.7500 0.0000 0.0000
vt 0.7917 0.0000 0.0000
vt 0.7917 0.8885 0.0000
vt 0.7500 0.8885 0.0000
vt 0.8333 0.0000 0.0000
vt 0.8333 0.8885 0.0000
vt 0.8750 0.0000 0.0000
vt 0.8750 0.8885 0.0000
vt 0.9167 0.0000 0.0000
vt 0.9167 0.8885 0.0000
vt 0.9583 0.0000 0.0000
vt 0.9583 0.8885 0.0000
vt 1.0000 0.0000 0.0000
vt 1.0000 0.8885 0.0000
vt 1.0417 0.0000 0.0000
vt 1.0417 0.8885 0.0000
vt 0.0417 0.0000 0.0000
vt 0.0833 0.0000 0.0000
vt 0.0833 0.8885 0.0000
vt 0.0417 0.8885 0.0000
vt 0.1250 0.0000 0.0000
vt 0.1250 0.8885 0.0000
vt 0.1667 0.0000 0.0000
vt 0.1667 0.8885 0.0000
vt 0.2083 0.0000 0.0000
vt 0.2083 0.8885 0.0000
vt 0.2500 0.0000 0.0000
vt 0.2500 0.8885 0.0000
vt 0.2917 0.0000 0.0000
vt 0.2917 0.8885 0.0000
vt 0.3333 0.0000 0.0000
vt 0.3333 0.8885 0.0000
vt 0.3750 0.0000 0.0000
vt 0.3750 0.8885 0.0000
vt 0.4141 0.0000 0.0000
vt 0.4168 0.9047 0.0000
vt 0.4194 0.0000 0.0000
vt 0.4583 0.0000 0.0000
vt 0.4583 0.8885 0.0000
vt 0.5000 0.0000 0.0000
vt 0.5000 0.8885 0.0000
vt 0.5417 0.0000 0.0000
vt 0.5417 0.8885 0.0000
vt 0.5833 0.0000 0.0000
vt 0.5833 0.8885 0.0000
vt 0.6250 0.0000 0.0000
vt 0.6250 0.8885 0.0000
vt 0.6667 0.0000 0.0000
vt 0.6667 0.8885 0.0000
vt 0.7083 0.0000 0.0000
vt 0.7083 0.8885 0.0000
vt 0.7500 1.0000 0.0000
vt 0.7917 1.0000 0.0000
vt 0.7927 1.0000 0.0000
vt 0.7354 1.0000 0.0000
vt 0.8333 1.0000 0.0000
vt 0.8301 1.0000 0.0000
vt 0.8750 1.0000 0.0000
vt 0.8934 1.0000 0.0000
vt 0.9167 1.0000 0.0000
vt 0.8638 1.0000 0.0000
vt 0.9583 1.0000 0.0000
vt 0.9923 1.0000 0.0000
vt 1.0000 1.0000 0.0000
vt 0.5320 1.0000 0.0000
vt 1.0417 1.0000 0.0000
vt -2.8525 1.0000 0.0000
vt 0.0417 1.0000 0.0000
vt 0.0833 1.0000 0.0000
vt 0.0827 1.0000 0.0000
vt 0.0446 1.0000 0.0000
vt 0.1250 1.0000 0.0000
vt 0.1260 1.0000 0.0000
vt 0.0944 1.0000 0.0000
vt 0.1667 1.0000 0.0000
vt 0.1653 1.0000 0.0000
vt 0.2083 1.0000 0.0000
vt 0.2099 1.0000 0.0000
vt 0.2500 1.0000 0.0000
vt 0.2505 1.0000 0.0000
vt 0.2917 1.0000 0.0000
vt 0.3016 1.0000 0.0000
vt 0.3333 1.0000 0.0000
vt 0.3373 1.0000 0.0000
vt 0.3750 1.0000 0.0000
vt 0.3736 1.0000 0.0000
vt 0.4167 1.0000 0.0000
vt 0.4139 1.0000 0.0000
vt 0.4583 1.0000 0.0000
vt 0.4598 1.0000 0.0000
vt 0.5000 1.0000 0.0000
vt 0.5144 1.0000 0.0000
vt 0.5417 1.0000 0.0000
vt 0.5418 1.0000 0.0000
vt 0.5833 1.0000 0.0000
vt 0.5815 1.0000 0.0000
vt 0.6250 1.0000 0.0000
vt 0.6262 1.0000 0.0000
vt 0.6667 1.0000 0.0000
vt 0.6615 1.0000 0.0000
vt 0.7083 1.0000 0.0000
vt 0.6735 1.0000 0.0000
# 102 texture coords

o Crater
g Crater
s off
f 1/1/1 2/2/2 3/3/3 
f 3/3/3 4/4/4 1/1/1 
f 2/2/2 5/5/5 6/6/6 
f 6/6/6 3/3/3 2/2/2 
f 5/5/5 7/7/7 8/8/8 
f 8/8/8 6/6/6 5/5/5 
f 7/7/7 9/9/9 10/10/10 
f 10/10/10 8/8/8 7/7/7 
f 9/9/9 11/11/11 12/12/12 
f 12/12/12 10/10/10 9/9/9 
f 11/11/11 13/13/13 14/14/14 
f 14/14/14 12/12/12 11/11/11 
f 13/13/13 15/15/15 16/16/16 
f 16/16/16 14/14/14 13/13/13 
f 15/17/15 17/18/17 18/19/18 
f 18/19/18 16/20/16 15/17/15 
f 17/18/17 19/21/19 20/22/20 
f 20/22/20 18/19/18 17/18/17 
f 19/21/19 21/23/21 22/24/22 
f 22/24/22 20/22/20 19/21/19 
f 21/23/21 23/25/23 24/26/24 
f 24/26/24 22/24/22 21/23/21 
f 23/25/23 25/27/25 26/28/26 
f 26/28/26 24/26/24 23/25/23 
f 25/27/25 27/29/27 28/30/28 
f 28/30/28 26/28/26 25/27/25 
f 27/29/27 29/31/29 30/32/30 
f 30/32/30 28/30/28 27/29/27 
f 29/31/29 31/33/31 32/34/32 
f 32/34/32 30/32/30 29/31/29 
f 31/33/31 33/35/33 34/36/34 
f 34/36/34 32/34/32 31/33/31 
f 35/37/35 36/38/36 37/39/37 
f 37/39/37 34/36/34 35/37/35 
f 36/38/36 38/40/38 39/41/39 
f 39/41/39 37/39/37 36/38/36 
f 38/40/38 40/42/40 41/43/41 
f 41/43/41 39/41/39 38/40/38 
f 40/42/40 42/44/42 43/45/43 
f 43/45/43 41/43/41 40/42/40 
f 42/44/42 44/46/44 45/47/45 
f 45/47/45 43/45/43 42/44/42 
f 44/46/44 46/48/46 47/49/47 
f 47/49/47 45/47/45 44/46/44 
f 46/48/46 48/50/48 49/51/49 
f 49/51/49 47/49/47 46/48/46 
f 48/50/48 1/1/1 4/4/4 
f 4/4/4 49/51/49 48/50/48 
f 50/52/50 51/53/51 52/54/52 
f 52/54/52 53/55/53 50/52/50 
f 51/53/51 54/56/54 55/57/55 
f 55/57/55 52/54/52 51/53/51 
f 54/56/54 56/58/56 57/59/57 
f 57/59/57 55/57/55 54/56/54 
f 56/58/56 58/60/58 59/61/59 
f 59/61/59 57/59/57 56/58/56 
f 58/60/58 60/62/60 61/63/61 
f 61/63/61 59/61/59 58/60/58 
f 60/62/60 62/64/62 63/65/63 
f 63/65/63 61/63/61 60/62/60 
f 62/64/62 64/66/64 65/67/65 
f 65/67/65 63/65/63 62/64/62 
f 64/68/64 66/69/66 67/70/67 
f 67/70/67 65/71/65 64/68/64 
f 66/69/66 68/72/68 69/73/69 
f 69/73/69 67/74/67 66/69/66 
f 68/72/68 70/75/70 71/76/71 
f 71/76/71 69/73/69 68/72/68 
f 70/75/70 72/77/72 73/78/73 
f 73/78/73 71/76/71 70/75/70 
f 72/77/72 74/79/74 75/80/75 
f 75/80/75 73/78/73 72/77/72 
f 74/79/74 76/81/76 77/82/77 
f 77/82/77 75/80/75 74/79/74 
f 76/81/76 78/83/78 79/84/79 
f 79/84/79 77/82/77 76/81/76 
f 78/83/78 80/85/80 81/86/81 
f 81/86/81 79/84/79 78/83/78 
f 80/85/80 82/87/82 83/88/83 
f 83/88/83 81/86/81 80/85/80 
f 82/87/82 84/89/84 85/90/85 
f 85/90/85 83/88/83 82/87/82 
f 84/89/84 86/91/86 87/92/87 
f 87/92/87 85/90/85 84/89/84 
f 86/91/86 88/93/88 89/94/89 
f 89/94/89 87/92/87 86/91/86 
f 88/93/88 90/95/90 91/96/91 
f 91/96/91 89/94/89 88/93/88 
f 90/95/90 92/97/92 93/98/93 
f 93/98/93 91/96/91 90/95/90 
f 92/97/92 94/99/94 95/100/95 
f 95/100/95 93/98/93 92/97/92 
f 94/99/94 96/101/96 97/102/97 
f 97/102/97 95/100/95 94/99/94 
f 96/101/96 50/52/50 53/55/53 
f 53/55/53 97/102/97 96/101/96 
f 3/3/3 51/53/51 50/52/50 
f 50/52/50 4/4/4 3/3/3 
f 6/6/6 54/56/54 51/53/51 
f 51/53/51 3/3/3 6/6/6 
f 8/8/8 56/58/56 54/56/54 
f 54/56/54 6/6/6 8/8/8 
f 10/10/10 58/60/58 56/58/56 
f 56/58/56 8/8/8 10/10/10 
f 12/12/12 60/62/60 58/60/58 
f 58/60/58 10/10/10 12/12/12 
f 14/14/14 62/64/62 60/62/60 
f 60/62/60 12/12/12 14/14/14 
f 16/16/16 64/66/64 62/64/62 
f 62/64/62 14/14/14 16/16/16 
f 18/19/18 66/69/66 64/68/64 
f 64/68/64 16/20/16 18/19/18 
f 20/22/20 68/72/68 66/69/66 
f 66/69/66 18/19/18 20/22/20 
f 22/24/22 70/75/70 68/72/68 
f 68/72/68 20/22/20 22/24/22 
f 24/26/24 72/77/72 70/75/70 
f 70/75/70 22/24/22 24/26/24 
f 26/28/26 74/79/74 72/77/72 
f 72/77/72 24/26/24 26/28/26 
f 28/30/28 76/81/76 74/79/74 
f 74/79/74 26/28/26 28/30/28 
f 30/32/30 78/83/78 76/81/76 
f 76/81/76 28/30/28 30/32/30 
f 32/34/32 80/85/80 78/83/78 
f 78/83/78 30/32/30 32/34/32 
f 34/36/34 82/87/82 80/85/80 
f 80/85/80 32/34/32 34/36/34 
f 37/39/37 84/89/84 82/87/82 
f 82/87/82 34/36/34 37/39/37 
f 39/41/39 86/91/86 84/89/84 
f 84/89/84 37/39/37 39/41/39 
f 41/43/41 88/93/88 86/91/86 
f 86/91/86 39/41/39 41/43/41 
f 43/45/43 90/95/90 88/93/88 
f 88/93/88 41/43/41 43/45/43 
f 45/47/45 92/97/92 90/95/90 
f 90/95/90 43/45/43 45/47/45 
f 47/49/47 94/99/94 92/97/92 
f 92/97/92 45/47/45 47/49/47 
f 49/51/49 96/101/96 94/99/94 
f 94/99/94 47/49/47 49/51/49 
f 4/4/4 50/52/50 96/101/96 
f 96/101/96 49/51/49 4/4/4 
f 33/35/33 35/37/35 34/36/34 
f 53/55/53 52/54/52 97/102/97 
f 52/54/52 55/57/55 97/102/97 
f 55/57/55 57/59/57 97/102/97 
f 57/59/57 59/61/59 97/102/97 
f 59/61/59 61/63/61 97/102/97 
f 61/63/61 63/65/63 97/102/97 
f 63/65/63 65/67/65 97/102/97 
f 65/67/65 67/74/67 97/102/97 
f 67/74/67 69/73/69 97/102/97 
f 69/73/69 71/76/71 97/102/97 
f 71/76/71 73/78/73 97/102/97 
f 73/78/73 75/80/75 97/102/97 
f 75/80/75 77/82/77 97/102/97 
f 77/82/77 79/84/79 97/102/97 
f 79/84/79 81/86/81 97/102/97 
f 81/86/81 83/88/83 97/102/97 
f 83/88/83 85/90/85 97/102/97 
f 85/90/85 87/92/87 97/102/97 
f 87/92/87 89/94/89 97/102/97 
f 89/94/89 91/96/91 97/102/97 
f 91/96/91 93/98/93 97/102/97 
f 93/98/93 95/100/95 97/102/97 
# 167 faces

