# 3ds Max Wavefront OBJ Exporter v0.97b - (c)2007 guruware
# File Created: 23.05.2018 15:25:34

#
# object Dunes02
#

v  7.7978 -0.0000 0.3243
v  7.7978 0.1554 0.6665
v  9.7435 0.1554 0.8730
v  9.7350 0.0003 0.6044
v  8.0144 -0.0000 1.2068
v  9.3969 0.0003 1.4336
v  5.6335 -0.0000 0.3503
v  5.7104 0.1554 0.7373
v  6.4230 0.0003 1.3587
v  3.4612 0.0053 0.7923
v  3.5580 0.1554 1.0819
v  3.8526 0.0003 1.6680
v  1.6080 0.0003 1.5238
v  12.1223 0.0003 1.8654
v  11.9518 0.0003 1.5822
v  11.5418 0.0003 1.9511
v  1.6877 0.0069 0.0347
v  2.0433 0.1576 -0.3158
v  0.3493 0.0069 -0.5042
v  0.5995 0.1576 -1.0581
v  -1.7718 0.0709 -0.6738
v  -1.5439 0.1576 -1.3504
v  -4.0018 0.0069 -0.4315
v  -2.8401 0.0389 -0.6510
v  -3.0463 0.1576 -1.3489
v  -4.3301 0.1576 -0.9645
v  -5.6105 0.0069 0.1167
v  -4.7756 0.0069 -0.2458
v  -5.0133 0.1576 -0.7115
v  -5.7046 0.1576 -0.3401
v  -7.9020 0.0003 0.9760
v  -7.9625 0.0003 0.7236
v  2.1210 0.0069 -0.5260
v  0.5720 0.0069 -1.4718
v  -1.6828 0.0069 -1.8903
v  -2.6810 0.0069 -1.9372
v  -3.8692 0.0069 -1.6633
v  -4.8299 0.0069 -1.2517
v  -5.7987 0.0003 -0.7219
v  -8.0005 0.0003 0.6012
v  2.4259 0.0005 -2.3787
v  2.3088 0.0003 -2.6232
v  1.0668 0.1554 -2.9011
v  2.7070 0.0003 -1.7114
v  1.0396 0.0000 -2.2041
v  -0.4542 0.0003 -3.7722
v  -0.6747 0.1554 -3.4440
v  -0.9479 0.0000 -2.7235
v  -2.2372 0.0003 -3.6987
v  -2.1054 0.1554 -3.3195
v  -2.1398 0.0000 -2.6664
v  -3.3197 0.1554 -2.5625
v  -3.5640 0.0003 -2.9172
v  -4.3643 0.0007 -2.1250
v  -3.5933 0.0000 -2.2119
v  -4.4023 0.0034 -1.8650
v  -4.5787 0.0696 -1.5608
v  -3.6830 0.1324 -1.9132
v  -2.2061 0.1324 -2.3746
v  -1.2183 0.1324 -2.3281
v  1.0102 0.1324 -1.9741
v  2.5802 0.1324 -1.4269
v  3.6944 0.0003 -0.7455
v  3.5887 0.0054 -0.5956
v  -5.5355 0.0003 -1.0315
v  -0.7311 0.0148 0.7233
v  0.5766 0.0148 1.0738
v  1.0639 0.1576 0.9299
v  -0.2894 0.1576 0.2907
v  -3.7464 0.0069 0.4785
v  -2.9531 0.0069 0.3741
v  -2.7840 0.1576 -0.1891
v  -3.7473 0.1576 -0.0887
v  -5.9094 0.0004 0.8955
v  -5.8273 0.1576 0.4710
v  1.0674 0.0069 0.6676
v  -0.2857 0.0069 -0.1161
v  -1.8782 0.0069 -0.4013
v  -1.8155 0.1576 -0.1026
v  -3.7386 0.0069 -0.2022
v  -5.2594 0.0581 0.1769
v  -2.2457 0.0069 0.4342
v  -2.8774 0.0069 -0.3804
v  1.3775 0.1350 0.3512
v  0.0318 0.1350 -0.3101
v  -2.8442 0.0699 -0.4942
v  -3.8304 0.0529 -0.2934
v  -1.9300 0.0869 -0.5375
v  -7.7954 0.0003 1.0985
v  -7.8325 0.0003 1.1410
v  11.0005 0.0003 2.8457
v  11.0695 0.0003 2.6741
v  10.3625 0.0003 2.0125
v  9.7543 0.1554 2.0380
v  10.8623 0.0003 2.9969
v  9.6651 0.0003 2.5608
v  9.0648 0.1554 1.7852
v  8.6258 0.0003 2.2575
v  8.0549 0.1554 1.5171
v  7.8728 0.0003 2.0301
v  6.8317 0.1554 1.5698
v  5.3734 0.0003 1.8952
v  7.0410 0.0003 1.9919
v  4.0575 0.1003 -0.4824
v  4.0847 0.0003 -0.6319
v  4.8634 0.1251 -0.5238
v  4.8906 0.0003 -0.6733
v  5.8540 0.0544 -1.0617
v  5.7641 0.0003 -1.1843
v  6.4667 0.0004 -1.1313
v  6.1834 0.0003 -1.2524
v  5.2484 0.1786 -0.0867
v  6.0501 0.1768 -0.3905
v  8.3327 0.0004 -0.3585
v  8.0653 0.1195 -0.0171
v  -2.3458 0.0003 1.3994
v  -1.7168 0.0003 1.3166
v  -1.5677 0.0978 0.9623
v  -2.3406 0.0520 1.0876
v  0.3952 0.0945 1.2505
v  -0.8148 0.0847 0.9386
v  -1.1559 0.0003 1.3642
v  0.1508 0.0003 1.6104
v  -1.6568 0.0228 0.7183
v  -2.3396 0.0228 0.8597
v  -3.4612 0.0004 1.3438
v  -3.0810 0.0003 1.5615
v  -2.8851 0.1038 0.6540
v  -3.5866 0.1172 0.8173
v  1.6996 0.0148 1.2624
v  1.8119 0.0054 1.0590
v  1.7336 0.0053 0.8086
v  -2.2979 0.0778 0.6708
v  -5.2724 0.0003 -1.3412
# 134 vertices

vn 0.0221 0.9069 -0.4208
vn 0.0237 0.9061 -0.4224
vn 0.1194 0.9182 -0.3777
vn 0.1064 0.9130 -0.3938
vn -0.0322 0.9745 0.2222
vn -0.0036 0.9670 0.2546
vn -0.0153 0.9656 0.2594
vn -0.0331 0.9710 0.2367
vn -0.0412 0.9184 -0.3935
vn -0.0382 0.9186 -0.3933
vn 0.0269 0.9728 0.2301
vn 0.0195 0.9704 0.2406
vn -0.1177 0.9076 -0.4030
vn -0.1126 0.9086 -0.4022
vn 0.0038 0.9691 0.2467
vn 0.0137 0.9710 0.2386
vn -0.1642 0.8972 -0.4099
vn 0.0254 0.9865 0.1615
vn 0.1672 0.9337 -0.3166
vn -0.0304 0.9810 0.1917
vn -0.1162 0.9583 0.2609
vn -0.0163 0.9712 0.2377
vn -0.1175 0.9563 0.2676
vn -0.0531 0.9755 0.2134
vn -0.0624 0.9739 0.2184
vn -0.0087 0.9864 0.1639
vn -0.0078 0.9853 0.1707
vn 0.0517 0.9744 0.2188
vn 0.0101 0.9853 0.1705
vn 0.0146 0.9844 0.1754
vn 0.0580 0.9722 0.2270
vn 0.0833 0.9701 0.2279
vn 0.0991 0.9613 0.2569
vn 0.1020 0.9608 0.2579
vn 0.0939 0.9670 0.2370
vn 0.0483 0.9791 0.1976
vn 0.1717 0.9556 -0.2393
vn 0.3090 0.8551 -0.4164
vn 0.3252 0.8484 -0.4177
vn 0.1139 0.9314 -0.3458
vn 0.1525 0.9176 -0.3671
vn 0.0221 0.9605 -0.2773
vn 0.0309 0.9573 -0.2874
vn -0.0179 0.9650 -0.2615
vn -0.0481 0.9625 -0.2670
vn -0.1072 0.9518 -0.2874
vn -0.0822 0.9577 -0.2758
vn -0.1354 0.9436 -0.3020
vn -0.1622 0.9345 -0.3169
vn -0.1745 0.9422 -0.2859
vn -0.1760 0.9392 -0.2948
vn -0.1689 0.9526 -0.2529
vn 0.1383 0.9881 -0.0669
vn 0.1423 0.9844 -0.1039
vn 0.1689 0.8858 -0.4323
vn 0.0136 0.9938 0.1108
vn -0.0287 0.9858 0.1653
vn -0.0166 0.9886 0.1497
vn 0.0934 0.8953 -0.4355
vn 0.0485 0.9043 -0.4242
vn -0.0274 0.9770 0.2113
vn -0.0160 0.9766 0.2147
vn -0.1079 0.9297 -0.3521
vn -0.1052 0.9294 -0.3538
vn 0.0643 0.9623 0.2642
vn 0.0897 0.9543 0.2850
vn -0.2088 0.9380 -0.2766
vn -0.2114 0.9382 -0.2740
vn -0.2414 0.9392 -0.2443
vn 0.0592 0.9594 0.2759
vn 0.1282 0.9388 0.3198
vn 0.0190 0.9824 0.1858
vn 0.0012 0.9977 0.0679
vn -0.1538 0.8959 -0.4168
vn -0.1837 0.9192 -0.3483
vn -0.1718 0.9503 -0.2598
vn -0.1696 0.9005 -0.4004
vn 0.0478 0.9320 -0.3593
vn -0.0530 0.9193 -0.3899
vn -0.0775 0.9117 -0.4036
vn 0.0259 0.9327 -0.3598
vn 0.1020 0.9164 -0.3870
vn 0.1054 0.9145 -0.3906
vn 0.1808 0.9349 -0.3054
vn 0.1841 0.9371 -0.2966
vn 0.1020 0.9589 -0.2647
vn 0.1196 0.9600 -0.2533
vn 0.0300 0.9916 0.1256
vn 0.0466 0.9844 0.1695
vn 0.1230 0.9209 0.3699
vn 0.1261 0.8917 0.4347
vn 0.1344 0.8973 0.4205
vn 0.0854 0.9147 0.3950
vn 0.0112 0.9552 0.2958
vn -0.0312 0.9716 0.2344
vn -0.0203 0.9677 0.2512
vn -0.0494 0.9811 0.1872
vn -0.0558 0.9846 0.1658
vn -0.0265 0.9955 0.0908
vn -0.0317 0.9948 0.0969
vn -0.0575 0.9976 0.0379
vn -0.0417 0.9982 0.0425
vn -0.0742 0.9629 0.2594
vn -0.0849 0.9465 0.3112
vn -0.0230 0.9352 0.3533
vn -0.0900 0.9572 0.2750
vn 0.0506 0.9578 0.2830
vn 0.0086 0.9660 0.2583
vn -0.0007 0.9665 0.2567
vn 0.0469 0.9591 0.2791
vn 0.0419 0.9498 0.3099
vn 0.0563 0.9490 0.3103
vn 0.1829 0.9202 -0.3460
vn 0.1878 0.9155 -0.3557
vn 0.1356 0.9068 -0.3992
vn 0.1581 0.9030 -0.3996
vn 0.0489 0.8810 -0.4705
vn 0.0595 0.8909 -0.4503
vn -0.1372 0.7200 -0.6802
vn -0.1325 0.7203 -0.6809
vn -0.1080 0.8966 -0.4295
vn -0.1363 0.9143 -0.3814
vn -0.0342 0.9678 0.2493
vn -0.0449 0.9682 0.2459
vn -0.0483 0.7861 -0.6163
vn -0.0300 0.8049 -0.5926
vn -0.1084 0.9037 0.4141
vn -0.1004 0.9530 0.2857
vn -0.0680 0.9562 0.2849
vn -0.1352 0.9308 0.3397
vn 0.1295 0.9472 -0.2934
vn 0.1246 0.9504 -0.2850
vn 0.1103 0.9415 -0.3185
vn 0.0706 0.9385 -0.3379
vn 0.0966 0.9052 0.4140
vn 0.0535 0.8817 0.4689
vn 0.0393 0.8776 0.4777
vn 0.1067 0.9169 0.3847
vn -0.0662 0.9743 -0.2152
vn -0.0678 0.9749 -0.2122
vn -0.0690 0.9753 -0.2099
vn -0.0866 0.9315 -0.3533
vn -0.0140 0.9759 -0.2178
vn 0.0210 0.9507 -0.3096
vn -0.0461 0.9798 -0.1944
vn -0.0487 0.9791 -0.1976
vn -0.0291 0.8704 0.4915
vn -0.0449 0.8710 0.4893
vn 0.1185 0.9294 0.3496
vn 0.0352 0.9444 0.3270
vn -0.1508 0.9320 -0.3295
vn 0.1822 0.9733 -0.1395
vn 0.1801 0.9662 -0.1847
vn 0.1730 0.9392 -0.2967
vn -0.0447 0.9768 0.2096
vn -0.0674 0.9690 0.2377
vn -0.0618 0.9710 0.2308
vn 0.1369 0.9232 -0.3592
vn 0.1154 0.9208 -0.3727
vn -0.0787 0.9633 0.2568
vn -0.0761 0.9634 0.2571
vn 0.0201 0.8954 -0.4448
vn 0.0309 0.8994 -0.4360
vn -0.0410 0.9586 0.2819
vn -0.0323 0.9569 0.2886
vn -0.0703 0.8884 -0.4536
vn -0.1394 0.9143 -0.3803
vn -0.1743 0.9238 -0.3410
vn -0.0059 0.9445 0.3286
vn -0.0108 0.9414 0.3371
vn -0.0205 0.9352 0.3536
vn -0.0292 0.8804 -0.4734
vn -0.0285 0.8839 -0.4668
vn -0.1278 0.8170 -0.5623
vn -0.1624 0.8239 -0.5430
vn -0.0874 0.9334 -0.3481
vn -0.1248 0.9151 -0.3835
vn 0.0183 0.9697 -0.2435
vn 0.0485 0.9796 -0.1950
vn -0.0036 0.9876 -0.1570
vn -0.0234 0.9930 -0.1158
vn -0.0348 0.9940 -0.1032
vn 0.0240 0.9839 -0.1772
vn 0.1176 0.9689 -0.2178
vn 0.1054 0.9704 -0.2174
vn 0.0870 0.9467 0.3102
vn 0.0574 0.9548 0.2917
vn 0.0264 0.9629 0.2684
vn -0.0200 0.9619 0.2728
vn -0.0294 0.9585 0.2834
vn -0.1020 0.9947 0.0093
vn 0.0206 0.9819 0.1881
vn 0.0025 0.9748 0.2232
vn 0.0038 0.9740 0.2264
vn 0.0135 0.9799 0.1991
vn 0.0727 0.9435 -0.3234
vn 0.0663 0.9377 -0.3412
vn 0.0478 0.9540 -0.2959
vn 0.0383 0.9517 -0.3046
vn -0.0121 0.9763 0.2162
vn -0.0194 0.9817 0.1893
vn 0.0036 0.9819 0.1895
vn -0.0298 0.9790 0.2019
vn 0.0053 0.9807 -0.1952
vn -0.0248 0.9656 -0.2588
vn -0.0612 0.9897 -0.1292
vn -0.0579 0.9939 -0.0939
vn -0.0511 0.9985 -0.0220
vn 0.0362 0.9858 0.1641
vn 0.0175 0.9768 0.2136
vn 0.0518 0.9622 0.2673
vn 0.0631 0.9750 0.2130
vn 0.0103 0.9765 0.2151
vn -0.0092 0.9520 -0.3060
vn -0.0527 0.9550 -0.2920
vn -0.0505 0.9541 -0.2952
vn -0.0020 0.9518 -0.3066
vn 0.0175 0.9862 0.1644
vn -0.0018 0.9960 0.0892
vn 0.0596 0.9919 -0.1123
vn 0.0956 0.9790 -0.1800
vn 0.0602 0.9316 -0.3584
vn -0.0141 0.9591 0.2828
vn -0.0577 0.9569 -0.2846
vn 0.0409 0.9706 -0.2371
vn 0.0415 0.9739 -0.2230
vn 0.0480 0.9561 0.2890
vn 0.0603 0.9547 0.2913
vn 0.1502 0.9641 -0.2188
vn -0.0435 0.9531 0.2996
vn -0.0108 0.9999 -0.0121
vn -0.1665 0.9605 -0.2228
# 232 vertex normals

vt 0.0000 1.0000 0.0000
vt 0.0000 0.0000 0.0000
vt 1.0000 0.0000 0.0000
vt 1.0000 1.0000 0.0000
vt 0.0000 0.5000 0.0000
vt 0.5000 0.5000 0.0000
vt 0.0000 0.7500 0.0000
vt 0.2500 0.7500 0.0000
vt 0.0000 0.8750 0.0000
vt 0.4438 0.0000 0.0000
# 10 texture coords

o Dunes02
g Dunes02
s off
f 1/1/1 2/2/2 3/3/3 
f 3/3/3 4/4/4 1/1/1 
f 3/3/5 2/2/6 5/2/7 
f 5/2/7 6/3/8 3/3/5 
f 2/2/2 1/1/1 7/1/9 
f 7/1/9 8/2/10 2/2/2 
f 5/2/7 2/2/6 8/2/11 
f 8/2/11 9/2/12 5/2/7 
f 8/2/10 7/1/9 10/1/13 
f 10/1/13 11/2/14 8/2/10 
f 9/2/12 8/2/11 11/2/15 
f 11/2/15 12/2/16 9/2/12 
f 11/2/14 10/1/13 13/1/17 
f 12/2/16 11/2/15 13/1/18 
f 4/4/4 3/3/3 14/3/19 
f 14/3/19 15/4/19 4/4/4 
f 3/3/5 6/3/8 16/3/20 
f 16/3/20 14/3/20 3/3/5 
f 17/1/21 10/1/22 18/1/23 
f 19/1/24 17/1/21 18/1/23 
f 18/1/23 20/1/25 19/1/24 
f 21/1/26 19/1/24 20/1/25 
f 20/1/25 22/1/27 21/1/26 
f 23/1/28 24/1/29 25/1/30 
f 25/1/30 26/1/31 23/1/28 
f 27/1/32 28/1/33 29/1/34 
f 29/1/34 30/1/35 27/1/32 
f 31/1/36 27/1/32 30/1/35 
f 30/1/35 32/1/36 31/1/36 
f 10/1/37 33/1/38 18/1/39 
f 18/1/39 33/1/38 34/1/40 
f 34/1/40 20/1/41 18/1/39 
f 20/1/41 34/1/40 35/1/42 
f 35/1/42 22/1/43 20/1/41 
f 22/1/43 35/1/42 36/1/44 
f 36/1/44 25/1/45 22/1/43 
f 26/1/46 37/1/47 38/1/48 
f 38/1/48 29/1/49 26/1/46 
f 30/1/50 39/1/51 40/1/52 
f 40/1/52 32/1/52 30/1/50 
f 41/2/53 42/1/54 43/2/55 
f 44/2/56 41/2/56 43/2/57 
f 43/2/57 45/2/58 44/2/56 
f 43/2/55 42/1/54 46/1/59 
f 46/1/59 47/2/60 43/2/55 
f 45/2/58 43/2/57 47/2/61 
f 47/2/61 48/2/62 45/2/58 
f 47/2/60 46/1/59 49/1/63 
f 49/1/63 50/2/64 47/2/60 
f 48/2/62 47/2/61 50/2/65 
f 50/2/65 51/2/66 48/2/62 
f 52/2/67 53/1/68 54/1/69 
f 55/2/70 52/2/71 54/1/72 
f 54/1/72 56/2/73 55/2/70 
f 55/2/74 56/2/75 57/5/76 
f 57/5/76 58/5/77 55/2/74 
f 48/2/78 51/2/79 59/5/80 
f 59/5/80 60/5/81 48/2/78 
f 45/2/82 48/2/78 60/5/81 
f 60/5/81 61/5/83 45/2/82 
f 44/2/84 45/2/82 61/5/83 
f 61/5/83 62/5/85 44/2/84 
f 63/3/86 44/2/84 62/5/85 
f 62/5/85 64/6/87 63/3/86 
f 65/5/88 39/1/88 38/1/89 
f 38/1/89 57/5/90 65/5/88 
f 58/5/91 37/1/92 36/1/93 
f 36/1/93 59/5/94 58/5/91 
f 60/5/95 35/1/96 34/1/97 
f 34/1/97 61/5/98 60/5/95 
f 61/5/98 34/1/97 33/1/99 
f 33/1/99 62/5/100 61/5/98 
f 62/5/100 33/1/99 10/1/101 
f 10/1/101 64/6/102 62/5/100 
f 66/1/103 67/1/104 68/1/105 
f 68/1/105 69/1/106 66/1/103 
f 70/1/107 71/1/108 72/1/109 
f 72/1/109 73/1/110 70/1/107 
f 74/1/111 70/1/107 73/1/110 
f 73/1/110 75/1/112 74/1/111 
f 68/1/113 76/1/114 77/1/115 
f 77/1/115 69/1/116 68/1/113 
f 69/1/116 77/1/115 78/1/117 
f 78/1/117 79/1/118 69/1/116 
f 73/1/119 80/1/120 81/1/121 
f 81/1/121 75/1/122 73/1/119 
f 82/1/123 66/1/103 69/1/106 
f 69/1/106 79/1/124 82/1/123 
f 78/1/117 83/1/125 72/1/126 
f 72/1/126 79/1/118 78/1/117 
f 77/6/127 76/5/128 84/7/129 
f 84/7/129 85/8/130 77/6/127 
f 84/7/131 17/1/132 19/1/133 
f 19/1/133 85/8/134 84/7/131 
f 80/1/135 83/1/136 86/1/137 
f 86/1/137 87/1/138 80/1/135 
f 81/1/121 87/1/139 23/1/140 
f 81/1/121 23/1/140 28/1/141 
f 81/1/121 28/1/141 27/1/142 
f 88/1/143 21/1/144 24/1/145 
f 24/1/145 86/1/146 88/1/143 
f 88/1/147 78/1/148 77/6/127 
f 77/6/127 85/1/130 88/1/147 
f 21/1/144 88/1/143 85/1/134 
f 85/1/134 19/1/133 21/1/144 
f 81/1/149 80/1/135 87/1/138 
f 24/1/29 21/1/26 22/1/27 
f 22/1/27 25/1/30 24/1/29 
f 36/1/44 37/1/47 26/1/46 
f 26/1/46 25/1/45 36/1/44 
f 49/1/63 53/1/68 52/2/67 
f 52/2/67 50/2/64 49/1/63 
f 50/2/65 52/2/71 55/2/70 
f 55/2/70 51/2/66 50/2/65 
f 51/2/79 55/2/74 58/5/77 
f 58/5/77 59/5/80 51/2/79 
f 36/1/93 35/1/96 60/5/95 
f 60/5/95 59/5/94 36/1/93 
f 71/1/108 82/1/123 79/1/124 
f 79/1/124 72/1/109 71/1/108 
f 83/1/125 80/1/120 73/1/119 
f 73/1/119 72/1/126 83/1/125 
f 83/1/136 78/1/148 88/1/147 
f 88/1/147 86/1/137 83/1/136 
f 24/1/145 23/1/140 87/1/139 
f 87/1/139 86/1/146 24/1/145 
f 74/1/111 75/1/112 89/1/150 
f 89/1/150 90/1/150 74/1/111 
f 89/2/151 75/4/122 27/1/142 
f 27/1/142 31/1/151 89/2/151 
f 81/1/121 27/1/142 75/4/122 
f 91/2/152 92/2/152 93/1/153 
f 93/1/153 94/2/154 91/2/152 
f 95/2/155 91/2/155 94/2/156 
f 94/2/156 96/2/157 95/2/155 
f 94/2/154 93/1/153 6/1/158 
f 6/1/158 97/2/159 94/2/154 
f 96/2/157 94/2/156 97/2/160 
f 97/2/160 98/2/161 96/2/157 
f 97/2/159 6/1/158 5/1/162 
f 5/1/162 99/2/163 97/2/159 
f 98/2/161 97/2/160 99/2/164 
f 99/2/164 100/2/165 98/2/161 
f 101/2/166 9/1/167 102/5/168 
f 103/2/169 101/2/170 102/2/171 
f 5/1/162 9/1/167 101/2/166 
f 101/2/166 99/2/163 5/1/162 
f 99/2/164 101/2/170 103/2/169 
f 103/2/169 100/2/165 99/2/164 
f 63/3/86 64/6/87 104/6/172 
f 104/6/172 105/3/173 63/3/86 
f 105/3/173 104/6/172 106/6/174 
f 106/6/174 107/3/175 105/3/173 
f 107/3/175 106/6/174 108/6/176 
f 108/6/176 109/3/177 107/3/175 
f 109/1/177 108/2/176 110/5/178 
f 110/5/178 111/6/178 109/1/177 
f 110/5/179 108/2/180 106/2/181 
f 110/5/179 106/2/181 112/5/182 
f 110/5/179 112/5/182 113/7/183 
f 114/5/184 110/5/179 113/7/183 
f 113/7/183 115/7/185 114/5/184 
f 112/5/186 7/1/187 113/7/188 
f 113/7/188 7/1/187 1/1/189 
f 1/1/189 115/7/190 113/7/188 
f 10/1/22 7/1/187 112/5/186 
f 10/1/101 112/2/182 104/2/191 
f 104/2/191 64/2/102 10/1/101 
f 104/6/191 112/2/182 106/2/181 
f 116/1/192 117/1/193 118/1/194 
f 118/1/194 119/1/195 116/1/192 
f 120/1/196 67/1/197 66/1/198 
f 66/1/198 121/1/199 120/1/196 
f 122/1/200 123/1/201 120/1/202 
f 120/1/202 121/1/203 122/1/200 
f 66/1/198 124/1/204 118/1/205 
f 118/1/205 121/1/199 66/1/198 
f 117/1/193 122/1/200 121/1/203 
f 121/1/203 118/1/194 117/1/193 
f 124/1/204 125/1/206 119/1/207 
f 119/1/207 118/1/205 124/1/204 
f 126/2/208 127/5/208 119/2/207 
f 119/2/207 125/1/206 126/2/208 
f 116/1/192 119/1/195 127/1/209 
f 126/1/210 125/1/211 128/1/212 
f 128/1/212 129/1/213 126/1/210 
f 71/1/214 70/1/215 129/1/216 
f 129/1/216 128/1/217 71/1/214 
f 68/1/105 67/1/104 130/1/218 
f 130/1/218 131/1/219 68/1/105 
f 76/1/114 68/1/113 131/1/220 
f 131/1/220 132/1/221 76/1/114 
f 131/6/219 130/5/218 10/1/22 
f 132/1/221 131/1/220 10/1/37 
f 130/5/218 13/2/18 10/1/22 
f 13/2/18 130/3/218 120/2/202 
f 120/2/202 123/2/201 13/2/18 
f 120/1/196 130/3/222 67/1/197 
f 17/1/132 84/7/131 10/9/37 
f 10/7/22 84/1/129 76/1/128 
f 76/1/128 132/6/223 10/7/22 
f 129/2/213 74/2/111 126/2/210 
f 129/2/216 70/1/215 74/2/224 
f 128/2/217 133/10/225 82/3/226 
f 82/3/226 71/8/214 128/2/217 
f 124/2/204 66/1/198 82/3/226 
f 82/3/226 133/10/225 124/2/204 
f 128/2/212 125/2/211 133/10/227 
f 133/10/227 125/2/211 124/2/228 
f 114/5/184 115/2/185 4/4/229 
f 115/2/190 1/1/189 4/4/230 
f 28/1/33 23/1/28 26/1/31 
f 26/1/31 29/1/34 28/1/33 
f 38/1/48 39/1/51 30/1/50 
f 30/1/50 29/1/49 38/1/48 
f 54/1/72 134/2/231 56/2/73 
f 56/2/75 134/2/232 65/5/232 
f 65/5/232 57/5/76 56/2/75 
f 38/1/89 37/1/92 58/5/91 
f 58/5/91 57/5/90 38/1/89 
# 220 faces

