# 3ds Max Wavefront OBJ Exporter v0.97b - (c)2007 guruware
# File Created: 23.05.2018 15:21:36

#
# object Dunes01
#

v  -2.0029 0.0016 -1.0452
v  -1.9703 0.0016 -0.8771
v  -1.0136 0.0901 -1.2220
v  -1.1553 0.0016 -1.6279
v  -0.4472 0.0901 -1.2395
v  -0.3559 0.0016 -1.6823
v  0.3370 0.0016 -1.4410
v  0.0343 0.0901 -1.0935
v  0.8821 0.0016 -0.4260
v  1.0446 0.0016 -0.9294
v  -1.6475 0.0016 -0.8249
v  -0.7146 0.0169 -0.9935
v  -0.1968 0.0938 -1.1949
v  -0.0006 0.0178 -0.9560
v  0.2283 0.0169 -0.8464
v  1.0996 0.0016 -0.2602
v  -1.6421 0.0016 -0.4998
v  -0.7021 0.0736 -0.6390
v  -0.0183 0.0768 -0.6120
v  0.2125 0.0736 -0.5145
v  1.0996 0.0016 0.0344
v  -1.6421 0.0016 -0.4078
v  -0.6945 -0.0020 -0.5119
v  -0.0130 -0.0025 -0.4871
v  0.2077 -0.0020 -0.3838
v  0.9921 0.0016 0.0870
v  -1.9769 0.0016 -0.3161
v  -0.9912 0.1258 -0.3786
v  -0.3389 0.1301 -0.1947
v  -0.1284 0.1258 -0.0562
v  -2.0151 0.0016 -0.1193
v  -1.1060 0.0014 0.0688
v  -0.3720 0.0014 0.1167
v  -0.1280 0.0014 0.1873
v  0.7425 0.0016 0.3750
v  0.0026 0.0016 -1.6036
v  -0.2443 0.0169 -1.0131
v  -0.2625 0.0736 -0.6598
v  -0.2455 -0.0020 -0.5416
v  -0.5471 0.1258 -0.3030
v  -0.6187 0.0014 0.0652
v  1.3807 0.0016 0.4198
v  1.1617 0.0016 0.1833
v  1.0677 0.0589 0.3867
v  1.2745 0.0589 0.6292
v  1.7229 0.0016 1.0396
v  1.6342 0.0016 1.2148
v  0.7905 0.0589 0.2624
v  1.0279 0.0016 0.4684
v  1.2330 0.0016 0.7114
v  1.6095 0.0016 1.2634
v  1.2830 0.0385 -0.3984
v  1.4248 0.0016 -0.7656
v  1.7999 0.0388 -0.1325
v  1.8621 0.0016 -0.3425
v  1.8526 0.0015 0.1720
v  2.0151 0.0015 -0.0633
v  -1.4489 0.0020 0.1482
v  -1.4756 0.0020 0.2542
v  -0.8530 0.0630 0.1943
v  -0.9403 0.0020 -0.0366
v  -0.6008 0.0630 0.2220
v  -0.5151 0.0020 0.0052
v  -0.1174 0.0020 0.1485
v  -0.3251 0.0630 0.3035
v  0.2504 0.0020 0.6254
v  0.3206 0.0020 0.4000
v  -1.3887 0.0020 0.3718
v  -0.7484 0.0237 0.3469
v  -0.4850 0.0237 0.3421
v  -0.1793 0.0237 0.3996
v  0.3687 0.0020 0.7540
v  -1.4516 0.0020 0.5753
v  -0.7966 0.0542 0.5726
v  -0.5007 0.0542 0.5201
v  -0.1923 0.0542 0.5716
v  0.3517 0.0020 0.9311
v  -1.4612 0.0020 0.6308
v  -0.8077 0.0135 0.6403
v  -0.5073 0.0135 0.5911
v  -0.2031 0.0135 0.6452
v  0.2822 0.0020 0.9511
v  -1.6982 0.0019 0.6996
v  -1.0865 0.0250 0.6830
v  -0.7092 0.0428 0.7278
v  -0.4735 0.0822 0.8383
v  -1.6700 0.0020 0.8173
v  -1.1019 0.0019 0.8082
v  -0.7836 0.0019 0.8938
v  -0.5395 0.0019 1.0076
v  0.0797 0.0020 1.1230
v  0.5477 0.0020 1.1977
v  0.4003 0.0020 1.0299
v  0.3478 0.0463 1.1456
v  0.4959 0.0463 1.3067
v  0.6598 0.0020 1.5674
v  0.6108 0.0020 1.6473
v  0.1322 0.0463 1.0473
v  0.3232 0.0020 1.1923
v  0.4709 0.0020 1.3502
v  0.5917 0.0020 1.6711
v  0.4589 0.0353 0.6819
v  0.5103 0.0020 0.5421
v  0.7162 0.0355 0.9556
v  0.7352 0.0020 0.8558
v  0.7474 0.0019 1.1289
v  0.8050 0.0019 1.0305
# 107 vertices

vn -0.1095 0.9868 -0.1189
vn -0.0558 0.9847 -0.1653
vn -0.0605 0.9850 -0.1613
vn 0.0099 0.9797 -0.2003
vn 0.0135 0.9798 -0.1997
vn 0.0925 0.9901 -0.1060
vn 0.0917 0.9885 -0.1201
vn 0.0278 0.9982 -0.0528
vn 0.0385 0.9979 -0.0526
vn 0.0098 0.9686 0.2485
vn 0.0096 0.9727 0.2321
vn 0.0103 0.9604 0.2783
vn -0.1887 0.8893 0.4165
vn -0.1034 0.9195 0.3793
vn -0.1617 0.8979 0.4094
vn -0.2185 0.8946 0.3899
vn -0.2255 0.8956 0.3835
vn -0.0324 0.9921 -0.1216
vn -0.0598 0.9949 -0.0814
vn -0.0344 0.9923 -0.1187
vn 0.0906 0.9864 -0.1371
vn 0.0493 0.9854 -0.1631
vn 0.0586 0.9848 -0.1634
vn 0.0969 0.9885 -0.1161
vn 0.1054 0.9906 -0.0870
vn 0.0189 0.9040 0.4272
vn 0.0078 0.9452 0.3263
vn 0.0183 0.9066 0.4216
vn -0.1914 0.8837 0.4272
vn -0.1628 0.8338 0.5275
vn -0.1790 0.8341 0.5218
vn -0.1741 0.9085 0.3800
vn -0.1447 0.9427 0.3005
vn 0.0036 0.8234 -0.5675
vn -0.1043 0.7102 -0.6962
vn -0.0696 0.7503 -0.6574
vn 0.1394 0.9641 -0.2261
vn 0.1351 0.9522 -0.2739
vn 0.1270 0.9475 -0.2935
vn 0.1419 0.9620 -0.2331
vn -0.0453 0.9703 0.2378
vn -0.0757 0.9823 0.1716
vn -0.0520 0.9733 0.2234
vn -0.1457 0.8962 0.4190
vn -0.1438 0.9233 0.3561
vn -0.1516 0.9178 0.3670
vn -0.1321 0.8931 0.4301
vn -0.1245 0.8913 0.4359
vn 0.0587 0.9806 -0.1870
vn 0.0633 0.9806 -0.1853
vn -0.0129 0.9493 0.3140
vn -0.0578 0.9354 0.3490
vn 0.0094 0.9870 -0.1602
vn 0.0101 0.9870 -0.1603
vn -0.0377 0.8454 0.5327
vn -0.0524 0.8435 0.5346
vn 0.0927 0.9206 -0.3794
vn 0.0597 0.8853 -0.4611
vn -0.0690 0.9493 0.3067
vn -0.0704 0.9490 0.3073
vn 0.1891 0.9730 -0.1324
vn 0.1429 0.9701 -0.1961
vn 0.1549 0.9693 -0.1910
vn 0.1841 0.9779 -0.0996
vn 0.1773 0.9825 -0.0565
vn -0.1258 0.8922 0.4337
vn -0.3845 0.8659 0.3200
vn -0.2879 0.8646 0.4119
vn -0.3077 0.8605 0.4060
vn -0.3564 0.8874 0.2925
vn -0.3090 0.9186 0.2462
vn 0.1166 0.9702 -0.2124
vn 0.1238 0.9693 -0.2124
vn 0.0168 0.9969 -0.0768
vn 0.0110 0.9972 -0.0742
vn 0.0730 0.9921 -0.1016
vn 0.1699 0.9854 0.0033
vn -0.0887 0.9843 0.1524
vn -0.0882 0.9828 -0.1623
vn -0.0183 0.9744 -0.2242
vn -0.0406 0.9780 -0.2046
vn 0.0525 0.9648 -0.2576
vn 0.0582 0.9648 -0.2564
vn 0.0987 0.9853 -0.1391
vn 0.0918 0.9770 -0.1923
vn 0.0325 0.9952 -0.0924
vn 0.0495 0.9947 -0.0900
vn -0.0403 0.9763 0.2127
vn -0.0523 0.9823 0.1799
vn -0.0558 0.9969 0.0550
vn -0.0307 0.9975 0.0633
vn -0.1079 0.8910 0.4410
vn -0.0312 0.9471 0.3195
vn -0.0398 0.9902 0.1340
vn -0.0262 0.9938 0.1084
vn -0.1028 0.9523 0.2873
vn 0.0942 0.9948 -0.0376
vn -0.0587 0.9946 -0.0858
vn -0.0413 0.9928 -0.1124
vn 0.0060 0.9871 -0.1599
vn 0.0804 0.9900 -0.1157
vn 0.1170 0.9902 -0.0763
vn 0.0265 0.9059 0.4227
vn -0.0479 0.9509 0.3058
vn 0.0086 0.9185 0.3952
vn -0.1055 0.9095 0.4020
vn -0.0028 0.8675 0.4975
vn 0.0048 0.8667 0.4989
vn -0.1121 0.9191 0.3778
vn -0.1331 0.9457 0.2965
vn -0.0271 0.9578 -0.2861
vn -0.0279 0.9730 -0.2291
vn -0.0279 0.9717 -0.2346
vn 0.0960 0.9722 -0.2134
vn 0.0054 0.9621 -0.2725
vn -0.0147 0.9589 -0.2832
vn 0.0513 0.9686 -0.2433
vn -0.0407 0.9881 0.1483
vn -0.0174 0.9953 0.0953
vn -0.0394 0.9886 0.1452
vn -0.1390 0.9319 0.3350
vn -0.1379 0.9631 0.2312
vn -0.1264 0.9659 0.2259
vn -0.1407 0.9339 0.3286
vn -0.1311 0.8759 0.4643
vn 0.2894 0.9398 -0.1817
vn 0.1933 0.9471 -0.2561
vn 0.2113 0.9441 -0.2530
vn 0.3085 0.9438 -0.1182
vn 0.3284 0.9434 -0.0461
vn -0.1457 0.8670 0.4764
vn -0.4953 0.7843 0.3735
vn -0.3268 0.8103 0.4864
vn -0.3396 0.8061 0.4847
vn -0.4950 0.8064 0.3235
vn -0.4907 0.8401 0.2311
vn 0.1372 0.9619 -0.2364
vn 0.1344 0.9678 -0.2128
vn 0.1167 0.9811 -0.1546
vn 0.0605 0.9890 -0.1350
vn 0.3278 0.9420 -0.0721
vn 0.2696 0.9507 -0.1534
vn 0.3657 0.9306 -0.0162
vn -0.2192 0.9522 0.2126
# 144 vertex normals

vt 0.0000 1.0000 0.0000
vt 0.0000 0.0000 0.0000
vt 1.0000 0.0000 0.0000
vt 1.0000 1.0000 0.0000
# 4 texture coords

o Dunes01
g Dunes01
s off
f 1/1/1 2/2/1 3/3/2 
f 3/3/2 4/4/3 1/1/1 
f 4/4/3 3/3/2 5/3/4 
f 5/3/4 6/4/5 4/4/3 
f 7/4/6 8/3/7 9/3/8 
f 9/3/8 10/4/9 7/4/6 
f 3/3/10 2/2/11 11/2/11 
f 11/2/11 12/3/12 3/3/10 
f 8/3/13 13/3/14 14/3/15 
f 14/3/15 15/3/16 8/3/13 
f 9/3/17 8/3/13 15/3/16 
f 15/3/16 16/3/17 9/3/17 
f 12/3/18 11/2/19 17/2/19 
f 17/2/19 18/3/20 12/3/18 
f 15/3/21 14/3/22 19/3/23 
f 19/3/23 20/3/24 15/3/21 
f 16/3/25 15/3/21 20/3/24 
f 20/3/24 21/3/25 16/3/25 
f 18/3/26 17/2/27 22/2/27 
f 22/2/27 23/3/28 18/3/26 
f 20/3/29 19/3/30 24/3/31 
f 24/3/31 25/3/32 20/3/29 
f 21/3/33 20/3/29 25/3/32 
f 25/3/32 26/3/33 21/3/33 
f 23/3/34 22/2/35 27/2/35 
f 27/2/35 28/3/36 23/3/34 
f 25/3/37 24/3/38 29/3/39 
f 29/3/39 30/3/40 25/3/37 
f 28/3/41 27/2/42 31/2/42 
f 31/2/42 32/3/43 28/3/41 
f 30/3/44 29/3/45 33/3/46 
f 33/3/46 34/3/47 30/3/44 
f 30/3/44 34/3/47 35/3/48 
f 5/3/4 13/3/49 36/4/50 
f 36/4/50 6/4/5 5/3/4 
f 5/3/51 3/3/10 12/3/12 
f 12/3/12 37/3/52 5/3/51 
f 37/3/53 12/3/18 18/3/20 
f 18/3/20 38/3/54 37/3/53 
f 38/3/55 18/3/26 23/3/28 
f 23/3/28 39/3/56 38/3/55 
f 39/3/57 23/3/34 28/3/36 
f 28/3/36 40/3/58 39/3/57 
f 40/3/59 28/3/41 32/3/43 
f 32/3/43 41/3/60 40/3/59 
f 42/3/61 43/3/62 44/3/63 
f 44/3/63 45/3/64 42/3/61 
f 46/3/65 42/3/61 45/3/64 
f 45/3/64 47/3/65 46/3/65 
f 48/3/66 30/2/44 35/3/48 
f 45/3/67 44/3/68 49/3/69 
f 49/3/69 50/3/70 45/3/67 
f 47/3/71 45/3/67 50/3/70 
f 50/3/70 51/3/71 47/3/71 
f 43/3/62 26/3/72 48/3/73 
f 48/3/73 44/3/63 43/3/62 
f 44/3/68 48/3/66 35/3/48 
f 35/3/48 49/3/69 44/3/68 
f 25/3/37 30/3/40 48/3/73 
f 48/3/73 26/3/72 25/3/37 
f 10/4/9 9/3/8 52/3/74 
f 52/3/74 53/4/75 10/4/9 
f 53/4/75 52/3/74 54/3/76 
f 54/3/76 55/4/76 53/4/75 
f 55/4/77 54/3/77 56/3/77 
f 56/3/77 57/4/77 55/4/77 
f 56/3/78 54/3/78 52/3/78 
f 52/3/78 9/3/78 56/3/78 
f 58/1/79 59/2/79 60/3/80 
f 60/3/80 61/4/81 58/1/79 
f 61/4/81 60/3/80 62/3/82 
f 62/3/82 63/4/83 61/4/81 
f 64/4/84 65/3/85 66/3/86 
f 66/3/86 67/4/87 64/4/84 
f 60/3/88 59/2/89 68/2/90 
f 68/2/90 69/3/91 60/3/88 
f 65/3/92 62/3/93 70/3/94 
f 70/3/94 71/3/95 65/3/92 
f 66/3/96 65/3/92 71/3/95 
f 71/3/95 72/3/97 66/3/96 
f 69/3/91 68/2/90 73/2/98 
f 73/2/98 74/3/99 69/3/91 
f 71/3/95 70/3/94 75/3/100 
f 75/3/100 76/3/101 71/3/95 
f 72/3/97 71/3/95 76/3/101 
f 76/3/101 77/3/102 72/3/97 
f 74/3/103 73/2/104 78/2/104 
f 78/2/104 79/3/105 74/3/103 
f 76/3/106 75/3/107 80/3/108 
f 80/3/108 81/3/109 76/3/106 
f 77/3/110 76/3/106 81/3/109 
f 81/3/109 82/3/110 77/3/110 
f 79/3/111 78/2/112 83/2/112 
f 83/2/112 84/3/113 79/3/111 
f 81/3/114 80/3/115 85/3/116 
f 85/3/116 86/3/117 81/3/114 
f 84/3/118 83/2/119 87/2/119 
f 87/2/119 88/3/120 84/3/118 
f 86/3/121 85/3/122 89/3/123 
f 89/3/123 90/3/124 86/3/121 
f 86/3/121 90/3/124 91/3/125 
f 62/3/82 65/3/85 64/4/84 
f 64/4/84 63/4/83 62/3/82 
f 62/3/93 60/3/88 69/3/91 
f 69/3/91 70/3/94 62/3/93 
f 70/3/94 69/3/91 74/3/99 
f 74/3/99 75/3/100 70/3/94 
f 75/3/107 74/3/103 79/3/105 
f 79/3/105 80/3/108 75/3/107 
f 80/3/115 79/3/111 84/3/113 
f 84/3/113 85/3/116 80/3/115 
f 85/3/122 84/3/118 88/3/120 
f 88/3/120 89/3/123 85/3/122 
f 92/3/126 93/3/127 94/3/128 
f 94/3/128 95/3/129 92/3/126 
f 96/3/130 92/3/126 95/3/129 
f 95/3/129 97/3/130 96/3/130 
f 98/3/131 86/2/121 91/3/125 
f 95/3/132 94/3/133 99/3/134 
f 99/3/134 100/3/135 95/3/132 
f 97/3/136 95/3/132 100/3/135 
f 100/3/135 101/3/136 97/3/136 
f 93/3/127 82/3/137 98/3/138 
f 98/3/138 94/3/128 93/3/127 
f 94/3/133 98/3/131 91/3/125 
f 91/3/125 99/3/134 94/3/133 
f 81/3/114 86/3/117 98/3/138 
f 98/3/138 82/3/137 81/3/114 
f 67/4/87 66/3/86 102/3/139 
f 102/3/139 103/4/140 67/4/87 
f 103/4/140 102/3/139 104/3/141 
f 104/3/141 105/4/142 103/4/140 
f 105/4/142 104/3/141 106/3/143 
f 106/3/143 107/4/143 105/4/142 
f 106/3/144 104/3/144 102/3/144 
f 102/3/144 66/3/144 106/3/144 
f 13/3/14 5/3/51 37/3/52 
f 37/3/52 14/3/15 13/3/14 
f 14/3/22 37/3/53 38/3/54 
f 38/3/54 19/3/23 14/3/22 
f 19/3/30 38/3/55 39/3/56 
f 39/3/56 24/3/31 19/3/30 
f 24/3/38 39/3/57 40/3/58 
f 40/3/58 29/3/39 24/3/38 
f 29/3/45 40/3/59 41/3/60 
f 41/3/60 33/3/46 29/3/45 
f 13/3/49 8/3/7 7/4/6 
f 7/4/6 36/4/50 13/3/49 
# 148 faces

