# 3ds Max Wavefront OBJ Exporter v0.97b - (c)2007 guruware
# File Created: 23.05.2018 15:33:44

#
# object Rocks1
#

v  -1.6572 1.8036 -0.8466
v  -0.7329 1.8039 -1.0083
v  -0.5337 1.9630 -1.3582
v  -0.6787 1.9785 -1.8681
v  -1.6182 2.1105 -2.0128
v  -1.6953 2.1969 -1.6967
v  -2.0883 0.0000 -0.4822
v  -0.6630 0.0000 -0.0982
v  -1.0182 1.0553 -0.4122
v  -2.2751 1.0779 -0.7835
v  0.1915 0.0000 -0.2976
v  0.3636 0.0000 -1.3672
v  -0.2770 1.0553 -1.3672
v  -0.4490 1.0553 -0.7039
v  0.1915 0.0000 -2.5968
v  -2.2523 0.0000 -2.5968
v  -1.9805 0.9646 -2.1655
v  -0.4490 1.0553 -2.1905
v  -2.4914 0.0000 -2.0576
v  -2.5227 0.0000 -0.8215
v  -2.1601 1.1459 -1.9193
v  -0.6779 1.5185 -0.8277
v  -0.8928 1.6382 -0.6344
v  -1.8638 1.6492 -0.6687
v  -1.8684 2.0801 -1.5987
v  -0.4062 0.8547 -1.4708
v  0.0644 0.8106 -1.6907
v  -0.0602 1.1705 -2.2574
v  -0.3370 1.2239 -2.2669
v  -0.6278 1.1530 -2.1361
v  -0.7968 0.9596 -1.8911
v  0.2294 0.9671 -2.3173
v  0.7330 -0.0530 -1.2969
v  0.9269 -0.0530 -2.6071
v  -0.4569 0.9360 -2.6700
v  -0.2755 1.1090 -2.5027
v  -0.4431 -0.0530 -3.2409
v  -1.0338 0.9293 -2.1340
v  -0.6135 1.0986 -2.4532
v  -0.5621 0.9496 -2.6330
v  -1.2097 -0.0530 -3.0285
v  -1.4305 -0.0530 -2.2826
v  -0.6615 0.7666 -1.3254
v  -0.1206 -0.0530 -0.8425
v  1.6681 1.2299 -0.3582
v  1.4112 1.1879 -0.1205
v  1.4370 1.1903 0.2624
v  1.6909 1.2299 0.4402
v  2.0974 1.1283 0.0595
v  2.0500 1.2241 -0.2790
v  1.4520 -0.0057 -0.9853
v  0.6146 -0.0172 -0.4487
v  1.0114 0.9199 -0.1724
v  1.5105 0.9258 -0.7051
v  0.9477 -0.0057 0.9652
v  1.8075 -0.0057 1.2550
v  1.8447 0.7668 0.9212
v  1.2780 0.8596 0.5173
v  2.6733 -0.0057 0.5395
v  2.5021 0.5686 0.2688
v  2.5924 -0.0057 -0.4476
v  2.4234 0.5686 -0.1622
v  -2.2496 1.1675 1.7862
v  -1.4620 1.1267 2.1450
v  -0.7694 1.1080 2.0381
v  -0.5659 0.7828 0.7994
v  -0.6783 0.7822 0.6301
v  -1.3754 0.9003 0.2313
v  -2.0542 1.0812 0.3615
v  -2.8710 -0.0000 2.2857
v  -1.8693 -0.0000 2.7919
v  -1.6287 1.0247 2.2815
v  -2.4068 1.0714 1.8972
v  -0.7620 -0.0000 2.4998
v  -0.2525 -0.0000 0.8541
v  -0.7071 0.9684 2.1447
v  -0.3452 -0.0000 0.6863
v  -1.2591 -0.0000 0.0656
v  -2.4975 -0.0000 0.3339
v  -2.2346 1.0694 0.4174
v  -1.2935 0.8494 1.9414
v  -0.6517 0.4617 2.5276
v  -0.2763 0.4025 2.4400
v  -0.1258 0.4025 2.2865
v  -0.4859 0.4025 1.8223
v  -0.9867 0.8494 1.3202
v  -1.4441 -0.1168 2.4597
v  -0.4424 -0.1168 3.0072
v  0.0767 -0.1168 2.4880
v  -0.1093 -0.1168 1.6587
v  -0.8628 -0.1168 1.0609
v  0.5766 0.4021 1.2858
v  0.3447 0.4021 1.4903
v  0.6859 0.4021 1.7292
v  0.9943 0.4021 1.5017
v  0.5648 -0.0572 0.8321
v  -0.1360 -0.0572 1.6132
v  0.1230 0.2514 1.5129
v  0.6339 0.3953 1.1056
v  0.3262 -0.0572 2.0631
v  0.4094 0.2514 2.0242
v  0.8798 -0.0572 2.2117
v  1.5118 -0.0572 1.7465
v  1.2576 0.3233 1.7459
v  0.7514 0.2514 2.1197
v  1.6165 -0.0572 1.4365
v  1.2364 0.3953 1.5275
v  -1.6460 1.3630 1.6417
v  -0.9705 1.1338 1.6246
v  -1.0814 1.1160 0.9434
v  -1.8880 1.2870 1.0367
v  -1.7503 1.2877 1.7787
v  -1.8091 1.0939 1.8217
v  -0.9011 0.9345 1.7758
v  -0.9638 0.6619 0.4566
v  -1.9975 1.0939 0.5471
v  0.7131 -0.0081 0.2660
v  1.0857 0.8965 0.2164
v  -0.9627 -0.0000 2.6238
v  -0.2669 -0.1168 2.9911
v  -2.1234 -0.0000 -0.0060
v  -2.5684 0.2187 -0.3915
v  -2.7154 0.2187 -0.4632
v  -2.7628 0.2187 -0.2480
v  -2.5890 0.2187 -0.1435
v  -2.3492 -0.0243 -0.4895
v  -2.8732 -0.0243 -0.6730
v  -2.7715 0.1389 -0.5669
v  -2.4687 0.2151 -0.4001
v  -2.9990 -0.0243 -0.3558
v  -2.9631 0.1389 -0.3231
v  -2.9591 -0.0243 -0.0552
v  -2.6033 -0.0243 0.1590
v  -2.6548 0.1770 0.0347
v  -2.9402 0.1389 -0.1366
v  -2.4307 -0.0243 0.1472
v  -2.5524 0.2151 -0.0200
v  1.3312 0.0807 -1.1132
v  1.1578 0.0723 -1.3197
v  0.9795 0.0828 -1.1294
v  1.1978 0.0528 -0.9060
v  1.3865 0.0365 -1.1194
v  1.3925 -0.0414 -1.1240
v  1.1675 0.0017 -1.3872
v  0.7656 -0.0471 -1.0772
v  1.0580 -0.0077 -0.7714
v  0.7702 0.1281 -2.7568
v  0.8911 0.1281 -2.9143
v  0.6466 0.1281 -3.0227
v  0.4803 0.1281 -2.8413
v  0.7862 -0.0644 -2.6153
v  1.0116 -0.0644 -2.9929
v  0.3049 -0.0644 -2.7792
v  0.7852 -0.0644 -3.1408
v  0.5456 -0.0644 -3.1573
v  0.3231 -0.0644 -2.9151
v  0.2796 0.0797 -3.1893
v  0.2321 0.0797 -3.0758
v  0.3632 0.0797 -3.0320
v  0.4315 0.0797 -3.1656
v  0.2600 -0.0178 -3.2782
v  0.1783 -0.0178 -3.0128
v  0.5141 -0.0178 -3.2238
v  0.3036 -0.0178 -2.9420
v  0.4248 -0.0178 -2.9565
v  0.5162 -0.0178 -3.1349
v  0.2098 0.0797 2.2602
v  0.1622 0.0797 2.3736
v  0.2934 0.0797 2.4174
v  0.3617 0.0797 2.2838
v  0.1902 -0.0178 2.1712
v  0.1085 -0.0178 2.4366
v  0.4443 -0.0178 2.2257
v  0.2338 -0.0178 2.5075
v  0.3550 -0.0178 2.4929
v  0.4464 -0.0178 2.3145
v  -2.7144 0.0797 0.2908
v  -2.8304 0.0797 0.2499
v  -2.8665 0.0797 0.3834
v  -2.7292 0.0797 0.4438
v  -2.6268 -0.0178 0.2660
v  -2.8964 -0.0178 0.1999
v  -2.6663 -0.0178 0.5229
v  -2.9599 -0.0178 0.3291
v  -2.9383 -0.0178 0.4493
v  -2.7549 -0.0178 0.5301
# 186 vertices

vn -0.0788 0.9040 0.4201
vn 0.0942 0.9399 0.3282
vn 0.1184 0.9656 0.2317
vn -0.0075 0.9575 0.2884
vn -0.4157 0.1700 0.8935
vn -0.2637 0.2049 0.9426
vn -0.2231 0.1897 0.9561
vn -0.2999 0.1794 0.9370
vn 0.6472 0.5410 0.5371
vn 0.8414 0.5403 0.0120
vn 0.8918 0.4501 0.0465
vn 0.6688 0.4538 0.5889
vn -0.0145 0.3807 -0.9246
vn 0.0112 0.3189 -0.9477
vn 0.0121 0.3169 -0.9484
vn -0.9008 0.3196 -0.2940
vn -0.9654 0.2555 -0.0522
vn -0.9423 0.3348 -0.0008
vn -0.8808 0.3692 -0.2966
vn 0.7354 0.3778 0.5625
vn 0.6108 0.3731 0.6984
vn 0.4093 0.3792 0.8299
vn 0.8841 0.4334 -0.1747
vn 0.9326 0.2873 -0.2184
vn 0.9408 0.3347 0.0540
vn 0.0509 0.2204 -0.9741
vn -0.9104 0.4106 0.0505
vn -0.8500 0.4168 -0.3220
vn -0.0785 0.9009 0.4269
vn 0.0778 0.8864 0.4563
vn -0.0556 0.9909 0.1229
vn -0.2047 0.9641 0.1690
vn -0.2310 0.9138 0.3340
vn 0.7082 0.6566 0.2594
vn 0.7505 0.6208 0.2266
vn 0.7892 0.5830 0.1933
vn 0.3769 0.4692 -0.7986
vn 0.3644 0.6297 -0.6861
vn 0.3725 0.5519 -0.7461
vn -0.7486 0.5094 -0.4244
vn -0.7982 0.0476 0.6005
vn 0.0356 0.9983 0.0463
vn -0.5859 0.3591 -0.7264
vn -0.5634 0.5358 -0.6289
vn -0.5605 0.5497 -0.6194
vn -0.6126 0.4743 0.6322
vn -0.3621 0.4664 0.8070
vn -0.3844 0.5146 0.7664
vn -0.5863 0.5524 0.5925
vn 0.6480 0.3646 0.6687
vn 0.6458 0.4898 0.5857
vn 0.6451 0.4978 0.5797
vn 0.4837 0.3387 -0.8071
vn 0.4824 0.3239 -0.8139
vn 0.4828 0.3292 -0.8115
vn -0.4819 0.7661 -0.4253
vn -0.4288 0.6157 0.6611
vn -0.5513 0.7145 0.4307
vn 0.6192 0.6426 0.4512
vn 0.4805 0.3051 -0.8222
vn -0.1158 0.9886 -0.0961
vn 0.1511 0.9813 -0.1193
vn -0.0322 0.9940 -0.1042
vn -0.3850 0.4701 0.7942
vn 0.9620 0.1883 0.1976
vn 0.9606 0.2063 0.1864
vn 0.9489 0.2847 0.1363
vn 0.7201 0.2658 -0.6409
vn 0.5346 0.1963 -0.8220
vn 0.6569 0.2421 -0.7140
vn -0.9425 0.2987 -0.1500
vn 0.4065 0.9083 0.0987
vn -0.4177 0.4818 0.7703
vn 0.7445 0.4250 -0.5149
vn 0.8242 0.4468 -0.3480
vn 0.7658 0.4315 -0.4767
vn 0.6804 0.4034 -0.6119
vn -0.9147 -0.0413 -0.4021
vn 0.0117 0.9998 -0.0187
vn -0.1791 0.9622 0.2053
vn -0.0702 0.9739 0.2159
vn 0.0522 0.9943 0.0927
vn -0.6590 0.4253 -0.6204
vn -0.6836 0.4992 0.5325
vn 0.5289 0.3946 0.7513
vn 0.4671 0.4637 -0.7529
vn -0.4491 0.8212 -0.3520
vn -0.0941 0.9465 0.3088
vn -0.2789 0.9055 0.3197
vn 0.0891 0.9725 0.2151
vn 0.1064 0.9526 0.2850
vn 0.0247 0.9989 -0.0395
vn 0.2485 0.9587 -0.1381
vn 0.2345 0.9003 -0.3667
vn 0.2347 0.9013 -0.3640
vn 0.1956 0.4742 0.8584
vn 0.2189 0.5577 0.8007
vn 0.1856 0.4394 0.8789
vn 0.9338 0.3336 -0.1294
vn 0.2133 0.8152 -0.5385
vn -0.9587 0.2384 0.1550
vn 0.9529 0.2836 -0.1072
vn 0.9108 0.4024 -0.0920
vn 0.9223 0.3743 -0.0959
vn 0.8488 0.5236 -0.0740
vn -0.9189 0.3656 0.1486
vn -0.8798 0.4002 0.2565
vn -0.7729 0.5787 0.2603
vn -0.8151 0.5639 0.1328
vn -0.6042 0.7905 0.0999
vn 0.3567 0.5930 0.7219
vn 0.3658 0.5630 0.7411
vn 0.3486 0.6177 0.7049
vn -0.1764 0.6354 -0.7518
vn -0.1798 0.6275 -0.7576
vn -0.2337 0.4837 -0.8435
vn 0.4301 0.2047 0.8793
vn 0.5868 0.7357 0.3382
vn 0.3242 0.8106 -0.4877
vn -0.2616 0.9018 -0.3439
vn -0.4412 0.8875 0.1334
vn -0.2858 0.8840 0.3699
vn -0.1729 0.8632 -0.4743
vn -0.7861 0.3602 -0.5023
vn -0.7705 0.3695 -0.5194
vn -0.7387 0.3869 -0.5519
vn 0.2944 0.4301 0.8534
vn -0.1740 0.1711 0.9698
vn 0.8213 0.3867 0.4194
vn -0.1289 0.8703 0.4754
vn 0.0398 0.8526 0.5210
vn -0.3184 0.8573 0.4045
vn 0.8343 0.5333 -0.1398
vn -0.6117 0.1129 0.7830
vn -0.1732 0.8670 0.4672
vn 0.0140 0.6888 0.7248
vn 0.0394 0.7523 0.6576
vn 0.2966 0.3615 0.8839
vn 0.5057 0.2715 0.8188
vn 0.1815 0.5260 0.8309
vn 0.6855 0.5137 0.5159
vn 0.2047 0.6914 0.6929
vn 0.8143 0.3012 -0.4962
vn -0.3354 0.9394 -0.0710
vn -0.5659 0.2520 -0.7850
vn 0.1625 0.4060 0.8993
vn 0.1410 0.6714 0.7276
vn 0.2677 0.7435 0.6128
vn -0.5008 0.8607 0.0922
vn 0.9023 0.4297 0.0354
vn -0.0062 0.2597 -0.9657
vn -0.2586 0.1823 0.9486
vn 0.7894 0.5790 0.2038
vn 0.0217 0.9998 0.0036
vn -0.2583 0.9622 -0.0865
vn -0.2263 0.9739 0.0181
vn -0.0655 0.9943 0.0838
vn 0.3197 0.4253 -0.8467
vn -0.7542 0.4992 -0.4266
vn -0.4905 0.3946 0.7770
vn 0.8745 0.4637 0.1420
vn 0.1525 0.8212 -0.5498
vn -0.3213 0.9465 0.0317
vn -0.4023 0.9055 -0.1347
vn -0.1644 0.9725 0.1649
vn -0.2223 0.9526 0.2077
vn 0.0459 0.9989 0.0076
vn -0.9752 0.1823 0.1256
vn 0.1151 0.5790 0.8072
vn 0.0038 0.9989 0.0466
vn -0.1815 0.9650 0.1893
vn -0.1793 0.9657 0.1876
vn 0.6817 0.4108 -0.6054
vn 0.6455 0.5033 -0.5745
vn 0.6941 0.3725 -0.6160
vn -0.5449 0.5998 -0.5860
vn -0.3256 0.8973 0.2982
vn 0.7298 -0.0657 0.6805
vn 0.5205 0.7152 -0.4664
vn 0.5841 0.6648 0.4657
vn -0.0000 1.0000 -0.0000
vn 0.7832 0.3603 0.5068
vn -0.2594 0.5334 0.8051
vn 0.2866 0.6007 -0.7463
vn -0.6054 0.6630 -0.4403
vn 0.0000 1.0000 0.0000
vn -0.8790 0.3705 -0.3000
vn 0.1474 0.6254 -0.7663
vn -0.1858 0.6885 0.7011
vn 0.6840 0.6781 0.2689
vn -0.0000 1.0000 0.0000
vn 0.2483 0.3705 -0.8950
vn 0.7735 0.6254 0.1025
vn -0.7107 0.6885 -0.1447
vn -0.2287 0.6781 0.6985
# 195 vertex normals

vt 0.1391 0.1537 0.0000
vt 0.7883 0.1533 0.0000
vt 0.8942 0.5767 0.0000
vt 1.0000 1.0000 0.0000
vt 0.1734 1.0000 0.0000
vt 0.1056 0.9345 0.0000
vt 0.0000 0.0000 0.0000
vt 0.5000 0.0000 0.0000
vt 0.5000 0.5000 0.0000
vt 0.0000 0.5000 0.0000
vt 0.9245 0.0000 0.0000
vt 0.8833 0.5000 0.0000
vt 0.0930 0.0000 0.0000
vt 0.5465 0.0000 0.0000
vt 0.7835 0.5000 0.0000
vt 0.1342 0.5000 0.0000
vt 1.0000 0.5000 0.0000
vt 0.7845 0.9311 0.0000
vt 0.7157 0.9315 0.0000
vt 0.5767 1.0000 0.0000
vt 0.8266 1.0000 0.0000
vt 0.0000 1.0000 0.0000
vt 1.0000 0.9294 0.0000
vt 0.1622 0.9230 0.0000
vt 1.0000 0.0000 0.0000
vt 1.0000 0.5858 0.0000
vt 0.6403 1.0000 0.0000
vt 1.0000 0.7331 0.0000
vt 0.7316 1.0000 0.0000
vt 0.9315 1.0000 0.0000
vt 0.5000 1.0000 0.0000
vt 0.5337 0.0000 0.0000
vt 1.0000 0.4963 0.0000
vt 0.3662 1.0000 0.0000
vt 0.0000 0.6466 0.0000
vt 0.8054 0.0000 0.0000
vt 0.7276 0.5000 0.0000
vt 0.3055 0.0000 0.0000
vt 0.4166 0.5000 0.0000
vt 0.8209 0.0000 0.0000
vt 0.1963 0.0000 0.0000
vt 0.2833 0.5000 0.0000
vt 0.5337 1.0000 0.0000
vt 0.3567 0.7095 0.0000
vt 0.6338 1.0000 0.0000
vt 0.3534 1.0000 0.0000
vt -0.0224 0.5985 0.0000
vt 0.9004 0.6071 0.0000
vt 1.8231 0.6157 0.0000
vt 0.6004 1.4367 0.0000
vt 0.3186 1.5155 0.0000
vt -0.5369 1.5016 0.0000
vt -1.3924 1.4877 0.0000
vt 0.4623 0.0000 0.0000
vt 0.4629 0.4566 0.0000
vt 0.0011 0.4769 0.0000
vt 0.0839 0.0000 0.0000
vt 0.9274 0.0000 0.0000
vt 0.9183 0.5000 0.0000
vt -0.0131 0.5443 0.0000
vt 0.0597 0.0000 0.0000
vt 0.5068 0.0000 0.0000
vt 0.5093 0.5000 0.0000
vt 0.0804 0.5000 0.0000
vt 0.0511 0.0000 0.0000
vt 0.9712 0.4578 0.0000
vt 0.0669 0.4557 0.0000
vt 0.8676 0.0000 0.0000
vt 1.0000 0.1958 0.0000
vt 0.8743 0.0000 0.0000
vt 0.0261 0.6460 0.0000
vt 1.8572 0.5928 0.0000
vt 0.4791 1.5181 0.0000
vt -1.3952 1.4876 0.0000
vt 1.9634 0.5216 0.0000
vt -1.5160 1.4856 0.0000
vt -0.0029 0.0750 0.0000
vt 0.0741 0.5815 0.0000
vt -0.3994 0.4012 0.0000
vt -0.2729 0.9127 0.0000
vt -0.0477 0.1007 0.0000
vt 0.1379 0.0213 0.0000
vt 0.1949 0.5871 0.0000
vt 0.0337 0.6263 0.0000
vt 0.0696 0.7657 0.0000
vt 0.2821 1.2008 0.0000
vt -0.0327 0.0100 0.0000
vt -0.0052 0.5106 0.0000
vt 0.0047 0.5375 0.0000
vt 0.1028 1.0227 0.0000
vt 0.0613 1.0374 0.0000
vt 0.0000 0.9294 0.0000
vt 0.8275 1.1096 0.0000
vt 0.0766 1.0335 0.0000
vt 0.7125 1.0439 0.0000
vt 0.0557 1.1653 0.0000
vt 0.8516 1.1239 0.0000
vt 0.1533 1.0000 0.0000
vt 0.0000 0.9311 0.0000
vt 0.0673 0.5646 0.0000
vt 0.5269 0.5599 0.0000
vt -0.1211 0.0536 0.0000
vt 1.0000 0.0926 0.0000
vt -0.0120 0.0191 0.0000
vt 0.0026 0.5167 0.0000
vt 0.0010 0.5342 0.0000
vt 0.8954 0.5500 0.0000
vt -0.0019 -0.0282 0.0000
vt -0.0074 0.4466 0.0000
vt 0.9246 0.0000 0.0000
vt 0.9247 0.4362 0.0000
vt 0.9864 0.5552 0.0000
vt 0.0945 0.5000 0.0000
vt 0.9539 0.0000 0.0000
vt 0.9381 0.5000 0.0000
# 115 texture coords

o Rocks1
g Rocks1
s off
f 1/1/1 2/2/2 3/3/3 
f 1/1/1 3/3/3 4/4/3 
f 1/1/1 4/4/3 5/5/3 
f 1/1/1 5/5/3 6/6/4 
f 7/7/5 8/8/6 9/9/7 
f 9/9/7 10/10/8 7/7/5 
f 11/7/9 12/8/10 13/9/11 
f 13/9/11 14/10/12 11/7/9 
f 15/7/13 16/11/13 17/12/14 
f 17/12/14 18/10/15 15/7/13 
f 19/13/16 20/14/17 10/15/18 
f 10/15/18 21/16/19 19/13/16 
f 14/17/12 22/18/20 23/19/21 
f 23/19/21 9/9/22 14/17/12 
f 18/17/23 4/4/24 3/20/25 
f 3/20/25 13/9/11 18/17/23 
f 17/12/14 5/21/26 4/22/26 
f 4/22/26 18/10/15 17/12/14 
f 10/15/18 24/23/27 25/24/28 
f 25/24/28 21/16/19 10/15/18 
f 26/7/29 27/8/30 28/25/30 
f 26/7/29 28/25/30 29/26/31 
f 26/7/29 29/26/31 30/27/32 
f 26/7/29 30/27/32 31/22/33 
f 32/25/34 27/8/35 33/8/36 
f 33/8/36 34/25/36 32/25/34 
f 35/4/37 36/28/38 32/25/39 
f 35/4/37 32/25/39 34/25/37 
f 35/4/37 34/25/37 37/4/37 
f 38/22/40 39/29/40 40/30/40 
f 38/22/40 40/30/40 41/31/40 
f 38/22/40 41/31/40 42/22/40 
f 43/7/41 38/22/41 42/22/41 
f 42/22/41 44/7/41 43/7/41 
f 45/7/42 46/32/42 47/33/42 
f 45/7/42 47/33/42 48/4/42 
f 45/7/42 48/4/42 49/34/42 
f 45/7/42 49/34/42 50/35/42 
f 51/7/43 52/36/43 53/37/44 
f 53/37/44 54/10/45 51/7/43 
f 55/38/46 56/25/47 57/17/48 
f 57/17/48 58/39/49 55/38/46 
f 56/7/50 59/40/50 60/37/51 
f 60/37/51 57/10/52 56/7/50 
f 61/41/53 51/25/53 54/17/54 
f 54/17/54 62/42/55 61/41/53 
f 53/37/44 46/43/56 45/22/56 
f 45/22/56 54/10/45 53/37/44 
f 57/17/48 48/4/57 47/44/58 
f 47/44/58 58/39/49 57/17/48 
f 60/37/51 49/45/59 48/22/59 
f 48/22/59 57/10/52 60/37/51 
f 54/17/54 45/4/60 50/46/60 
f 50/46/60 62/42/55 54/17/54 
f 63/47/61 64/48/62 65/49/62 
f 63/47/61 65/49/62 66/50/62 
f 63/47/61 66/50/62 67/51/62 
f 63/47/61 67/51/62 68/52/62 
f 63/47/61 68/52/62 69/53/63 
f 70/7/64 71/54/64 72/55/64 
f 72/55/64 73/56/64 70/7/64 
f 74/57/65 75/58/65 66/59/66 
f 66/59/66 76/60/67 74/57/65 
f 77/61/68 78/62/69 68/63/69 
f 68/63/69 67/64/70 77/61/68 
f 79/65/71 70/25/71 73/66/71 
f 73/66/71 80/67/71 79/65/71 
f 81/7/72 82/68/72 83/69/72 
f 81/7/72 83/69/72 84/17/72 
f 81/7/72 84/17/72 85/4/72 
f 81/7/72 85/4/72 86/22/72 
f 82/68/73 81/7/73 87/7/73 
f 87/7/73 88/70/73 82/68/73 
f 85/4/74 84/17/75 89/17/75 
f 89/17/75 90/4/76 85/4/74 
f 86/22/77 85/4/74 90/4/76 
f 90/4/76 91/22/77 86/22/77 
f 81/7/78 86/22/78 91/22/78 
f 91/22/78 87/7/78 81/7/78 
f 92/7/79 93/25/80 94/4/81 
f 94/4/81 95/22/82 92/7/79 
f 96/7/83 97/25/83 98/17/83 
f 98/17/83 99/10/83 96/7/83 
f 97/7/84 100/8/84 101/9/84 
f 101/9/84 98/10/84 97/7/84 
f 102/7/85 103/8/85 104/9/85 
f 104/9/85 105/10/85 102/7/85 
f 106/7/86 96/25/86 99/17/86 
f 99/17/86 107/10/86 106/7/86 
f 98/17/87 93/4/87 92/22/87 
f 92/22/87 99/10/87 98/17/87 
f 105/17/88 94/4/81 93/22/80 
f 105/17/88 93/22/80 98/10/89 
f 105/17/88 98/10/89 101/9/89 
f 107/17/90 95/4/82 94/22/81 
f 107/17/90 94/22/81 105/10/88 
f 107/17/90 105/10/88 104/9/91 
f 99/17/92 92/4/79 95/22/82 
f 95/22/82 107/10/90 99/17/92 
f 108/71/93 109/72/93 110/73/94 
f 110/73/94 111/74/95 108/71/93 
f 109/72/96 112/10/97 113/10/98 
f 113/10/98 114/75/98 109/72/96 
f 110/73/99 109/72/99 114/75/99 
f 114/75/99 115/73/99 110/73/99 
f 111/74/95 110/73/94 115/73/100 
f 115/73/100 116/76/100 111/74/95 
f 112/10/101 111/74/101 116/76/101 
f 116/76/101 113/10/101 112/10/101 
f 59/77/102 61/41/102 62/42/103 
f 62/42/103 60/78/104 59/77/102 
f 60/79/104 62/42/103 50/46/105 
f 50/46/105 49/80/105 60/79/104 
f 52/81/106 117/82/107 118/83/108 
f 118/83/108 53/84/109 52/81/106 
f 53/85/109 118/83/108 47/44/58 
f 47/44/58 46/86/110 53/85/109 
f 27/8/111 43/7/112 44/7/113 
f 44/7/113 33/8/113 27/8/111 
f 40/30/114 35/4/115 37/4/116 
f 37/4/116 41/31/116 40/30/114 
f 43/7/112 27/8/111 26/7/117 
f 27/8/35 32/25/34 28/25/118 
f 32/25/39 36/28/38 29/26/119 
f 29/26/119 28/25/119 32/25/39 
f 39/29/120 38/22/121 31/22/33 
f 31/22/33 30/27/32 39/29/120 
f 38/22/121 43/7/122 26/7/29 
f 26/7/29 31/22/33 38/22/121 
f 36/28/123 35/4/115 40/30/114 
f 40/30/114 39/29/120 36/28/123 
f 36/28/123 39/29/120 30/27/32 
f 30/27/32 29/26/31 36/28/123 
f 16/87/124 19/13/16 21/16/19 
f 21/16/19 17/88/125 16/87/124 
f 17/89/125 21/16/19 25/24/28 
f 17/89/125 25/24/28 6/90/126 
f 17/89/125 6/90/126 5/91/126 
f 8/8/127 11/25/9 14/17/12 
f 14/17/12 9/9/22 8/8/127 
f 23/19/128 24/92/128 10/10/8 
f 10/10/8 9/9/7 23/19/128 
f 23/19/21 22/18/20 2/93/129 
f 1/94/1 24/92/130 23/19/131 
f 23/19/131 2/95/2 1/94/1 
f 6/96/4 25/24/132 24/23/130 
f 24/23/130 1/97/1 6/96/4 
f 12/8/10 15/25/133 18/17/23 
f 18/17/23 13/9/11 12/8/10 
f 3/20/25 2/98/129 22/99/20 
f 3/20/25 22/99/20 14/10/12 
f 3/20/25 14/10/12 13/9/11 
f 20/14/134 7/25/5 10/15/8 
f 63/100/135 73/56/135 72/55/136 
f 72/55/136 64/101/137 63/100/135 
f 119/102/138 74/57/139 76/60/140 
f 84/17/141 83/69/141 120/103/141 
f 120/103/141 89/17/141 84/17/141 
f 88/70/142 120/103/142 83/69/142 
f 83/69/142 82/68/142 88/70/142 
f 75/104/143 77/61/68 67/64/70 
f 67/64/70 66/105/143 75/104/143 
f 69/106/63 80/67/144 73/66/144 
f 73/66/144 63/107/61 69/106/63 
f 121/108/145 79/65/145 80/67/145 
f 80/67/145 69/109/145 121/108/145 
f 71/54/146 119/110/138 76/111/140 
f 76/111/140 72/55/136 71/54/146 
f 72/55/136 76/111/140 65/112/147 
f 65/112/147 64/101/137 72/55/136 
f 108/71/148 112/10/97 109/72/96 
f 111/74/149 112/10/149 108/71/149 
f 66/59/66 65/113/150 76/60/67 
f 78/62/151 121/114/151 69/115/151 
f 69/115/151 68/63/151 78/62/151 
f 100/8/152 102/25/152 105/17/152 
f 105/17/152 101/9/152 100/8/152 
f 103/8/153 106/25/153 107/17/153 
f 107/17/153 104/9/153 103/8/153 
f 58/39/49 47/44/58 118/83/108 
f 117/82/107 55/38/46 58/39/49 
f 58/39/49 118/83/108 117/82/107 
f 122/7/154 123/25/155 124/4/156 
f 124/4/156 125/22/157 122/7/154 
f 126/7/158 127/25/158 128/17/158 
f 128/17/158 129/10/158 126/7/158 
f 127/7/159 130/8/159 131/9/159 
f 131/9/159 128/10/159 127/7/159 
f 132/7/160 133/8/160 134/9/160 
f 134/9/160 135/10/160 132/7/160 
f 136/7/161 126/25/161 129/17/161 
f 129/17/161 137/10/161 136/7/161 
f 128/17/162 123/4/162 122/22/162 
f 122/22/162 129/10/162 128/17/162 
f 135/17/163 124/4/156 123/22/155 
f 135/17/163 123/22/155 128/10/164 
f 135/17/163 128/10/164 131/9/164 
f 137/17/165 125/4/157 124/22/156 
f 137/17/165 124/22/156 135/10/163 
f 137/17/165 135/10/163 134/9/166 
f 129/17/167 122/4/154 125/22/157 
f 125/22/157 137/10/165 129/17/167 
f 130/8/168 132/25/168 135/17/168 
f 135/17/168 131/9/168 130/8/168 
f 133/8/169 136/25/169 137/17/169 
f 137/17/169 134/9/169 133/8/169 
f 138/71/170 139/72/170 140/73/171 
f 140/73/171 141/74/172 138/71/170 
f 139/72/173 142/10/174 143/10/175 
f 143/10/175 144/75/175 139/72/173 
f 140/73/176 139/72/176 144/75/176 
f 144/75/176 145/73/176 140/73/176 
f 141/74/172 140/73/171 145/73/177 
f 145/73/177 146/76/177 141/74/172 
f 142/10/178 141/74/178 146/76/178 
f 146/76/178 143/10/178 142/10/178 
f 138/71/179 142/10/174 139/72/173 
f 141/74/180 142/10/180 138/71/180 
f 147/7/181 148/25/181 149/4/181 
f 149/4/181 150/22/181 147/7/181 
f 151/7/182 152/25/182 148/4/182 
f 148/4/182 147/22/182 151/7/182 
f 153/7/183 151/25/183 147/4/183 
f 147/4/183 150/22/183 153/7/183 
f 154/8/184 155/25/184 149/4/184 
f 154/8/184 149/4/184 148/22/184 
f 154/8/184 148/22/184 152/7/184 
f 156/8/185 153/25/185 150/4/185 
f 156/8/185 150/4/185 149/22/185 
f 156/8/185 149/22/185 155/7/185 
f 157/7/186 158/25/186 159/4/186 
f 159/4/186 160/22/186 157/7/186 
f 161/7/187 162/25/187 158/4/187 
f 158/4/187 157/22/187 161/7/187 
f 163/7/188 161/25/188 157/4/188 
f 157/4/188 160/22/188 163/7/188 
f 164/8/189 165/25/189 159/4/189 
f 164/8/189 159/4/189 158/22/189 
f 164/8/189 158/22/189 162/7/189 
f 166/8/190 163/25/190 160/4/190 
f 166/8/190 160/4/190 159/22/190 
f 166/8/190 159/22/190 165/7/190 
f 167/7/186 168/25/186 169/4/186 
f 169/4/186 170/22/186 167/7/186 
f 171/7/187 172/25/187 168/4/187 
f 168/4/187 167/22/187 171/7/187 
f 173/7/188 171/25/188 167/4/188 
f 167/4/188 170/22/188 173/7/188 
f 174/8/189 175/25/189 169/4/189 
f 174/8/189 169/4/189 168/22/189 
f 174/8/189 168/22/189 172/7/189 
f 176/8/190 173/25/190 170/4/190 
f 176/8/190 170/4/190 169/22/190 
f 176/8/190 169/22/190 175/7/190 
f 177/7/191 178/25/191 179/4/191 
f 179/4/191 180/22/191 177/7/191 
f 181/7/192 182/25/192 178/4/192 
f 178/4/192 177/22/192 181/7/192 
f 183/7/193 181/25/193 177/4/193 
f 177/4/193 180/22/193 183/7/193 
f 184/8/194 185/25/194 179/4/194 
f 184/8/194 179/4/194 178/22/194 
f 184/8/194 178/22/194 182/7/194 
f 186/8/195 183/25/195 180/4/195 
f 186/8/195 180/4/195 179/22/195 
f 186/8/195 179/22/195 185/7/195 
# 266 faces

