# 3ds Max Wavefront OBJ Exporter v0.97b - (c)2007 guruware
# File Created: 23.05.2018 15:35:33

#
# object Rocks2
#

v  1.0736 -0.0000 0.2013
v  0.0479 0.0000 -0.6976
v  0.0428 1.1030 -0.7149
v  0.9733 1.2194 0.0522
v  -0.8439 0.0000 -1.1493
v  -0.7207 0.6909 -1.0442
v  -1.9216 -0.0000 -0.0076
v  -1.7157 -0.0000 1.2611
v  -1.7208 1.0686 1.2889
v  -1.7594 1.0686 0.1681
v  -0.1213 -0.0000 1.7792
v  -0.1220 1.0686 1.7812
v  0.1289 -0.0000 1.7582
v  0.8887 -0.0000 1.3614
v  0.8386 1.1440 1.2101
v  0.1176 1.0785 1.7408
v  0.2855 1.7485 1.3435
v  0.2368 1.9255 1.2619
v  0.5444 2.4952 0.5044
v  -0.1166 3.1209 0.5881
v  -0.3329 3.1209 0.8791
v  -0.4730 3.4159 0.6201
v  -0.6854 3.2797 0.9135
v  -0.7406 3.3156 0.6201
v  -1.0680 2.8777 1.0995
v  -1.2492 2.7082 0.6479
v  -1.2458 2.1901 1.2358
v  0.0628 1.8790 1.3535
v  -0.5401 3.0741 1.0098
v  -1.2618 -0.0000 2.1134
v  -0.3760 -0.0000 2.7466
v  -0.5568 0.3516 2.5339
v  -0.6949 0.4812 2.3809
v  -0.9806 0.5217 2.0741
v  -1.1765 0.6288 1.7108
v  -0.4244 0.9458 1.5029
v  -1.1399 0.9924 0.9480
v  -1.4917 -0.0000 1.7693
v  -1.4917 -0.0000 1.1301
v  -0.2691 0.8113 1.5862
v  -0.1590 0.5814 2.1096
v  0.0923 -0.0000 2.2160
v  0.0527 -0.0000 1.5862
v  1.5232 0.0000 -2.0536
v  0.6154 0.0000 -2.4801
v  0.7066 0.5424 -2.3157
v  1.3039 0.5780 -1.8978
v  -0.0863 0.0000 -2.3074
v  0.0374 0.5424 -2.0436
v  -0.2366 0.0000 -1.3358
v  0.0126 0.5659 -1.5376
v  0.1097 0.0000 -0.6327
v  0.6634 0.0000 -0.2070
v  0.7405 0.5715 -0.7104
v  0.3098 0.5715 -0.9965
v  1.6512 0.0000 -1.5666
v  1.4153 0.5715 -1.6392
v  0.5877 0.7395 -2.0624
v  0.9669 1.0210 -1.6861
v  0.2884 0.7053 -1.9575
v  0.2709 0.9473 -1.5618
v  0.6080 1.0210 -1.0798
v  0.3630 1.0210 -1.3384
v  1.2298 0.0000 -0.4245
v  1.7356 0.0000 -1.0376
v  1.3676 0.5769 -1.0354
v  1.1814 0.5715 -0.8563
v  1.3116 0.6183 -1.2982
v  1.6527 0.0000 -1.2929
v  1.5895 0.0000 -1.5463
v  1.0819 0.7371 -1.6442
v  0.6469 0.8472 -1.0916
v  0.8492 0.0000 -0.6236
v  -0.4106 3.2183 0.3490
v  -0.5547 2.7526 -0.0515
v  -0.5547 2.1119 -0.7354
v  -1.6898 0.0000 -0.8567
v  -1.5912 0.5563 -0.7147
v  -1.1363 1.3167 -0.8670
v  -0.5798 1.4845 -0.5968
v  -1.2552 1.4012 -0.6949
v  1.2944 0.2774 1.2311
v  1.0073 0.3010 1.4433
v  1.0599 0.2999 1.6867
v  1.3303 0.2963 1.6929
v  1.4784 0.3759 1.5074
v  1.0808 -0.0062 1.0174
v  0.6930 -0.0145 1.4517
v  0.7444 -0.0165 1.7195
v  1.2715 -0.0134 1.9824
v  1.5366 -0.0127 1.8673
v  1.7105 -0.0140 1.2823
v  -2.4996 0.2410 -0.6968
v  -2.2796 0.2565 -0.6154
v  -2.1648 0.2558 -0.7318
v  -2.2587 0.2534 -0.8827
v  -2.4139 0.3057 -0.8973
v  -2.5402 0.0547 -0.5025
v  -2.1620 0.0493 -0.4457
v  -2.0333 0.0479 -0.5703
v  -2.0785 0.0500 -0.9545
v  -2.2371 0.0505 -1.0588
v  -2.6211 0.0496 -0.9439
v  -0.7067 0.2133 -1.4863
v  -0.5163 0.2405 -1.3259
v  -0.3579 0.3011 -1.4181
v  -0.4157 0.3162 -1.5854
v  -0.5860 0.2853 -1.6276
v  -0.9543 -0.0212 -1.5265
v  -0.7667 -0.0302 -1.1932
v  -0.5893 -0.0324 -1.1683
v  -0.3140 -0.0291 -1.4400
v  -0.3292 -0.0283 -1.6292
v  -0.6558 -0.0297 -1.8616
# 114 vertices

vn 0.6490 -0.0250 -0.7603
vn 0.5421 -0.0045 -0.8403
vn 0.4496 0.1660 -0.8777
vn 0.5964 0.1977 -0.7779
vn 0.4233 0.0165 -0.9058
vn 0.3395 0.2031 -0.9184
vn -0.9836 0.1440 -0.1086
vn -0.9928 0.0633 0.1016
vn -0.9751 0.1917 0.1114
vn -0.9393 0.2868 -0.1885
vn -0.3016 -0.0141 0.9533
vn -0.0908 -0.0032 0.9959
vn -0.0481 0.1742 0.9835
vn -0.2465 0.1199 0.9617
vn 0.3341 0.0445 0.9415
vn 0.8226 0.0878 0.5618
vn 0.8299 0.2204 0.5126
vn 0.3413 0.2217 0.9134
vn 0.5821 0.4238 0.6940
vn 0.6214 0.4530 0.6392
vn 0.7468 0.4559 0.4842
vn 0.5820 0.5782 0.5718
vn 0.4834 0.5781 0.6574
vn 0.4935 0.6943 0.5238
vn 0.2661 0.5851 0.7660
vn -0.5613 0.8021 0.2037
vn -0.6684 0.7307 -0.1392
vn -0.8301 0.5298 0.1737
vn -0.8518 0.4884 -0.1895
vn -0.9253 0.3561 0.1308
vn -0.0874 0.2714 0.9585
vn 0.1447 0.3875 0.9104
vn 0.0000 0.2788 0.9604
vn 0.1856 0.4343 0.8815
vn -0.6945 0.3698 0.6173
vn -0.6011 0.2718 0.7515
vn -0.6784 0.3519 0.6449
vn -0.2650 0.8788 0.3969
vn 0.0241 0.8868 0.4616
vn -0.1081 0.8929 0.4370
vn -0.8579 0.4202 0.2957
vn -0.8690 0.4171 0.2660
vn -0.9180 0.3890 0.0769
vn 0.9250 0.3772 -0.0449
vn 0.4627 0.2921 -0.8370
vn 0.4076 0.4741 -0.7805
vn 0.4039 0.4842 -0.7762
vn -0.2828 0.4002 -0.8717
vn -0.2855 0.5189 -0.8058
vn -0.2855 0.5265 -0.8008
vn -0.9394 0.3226 -0.1165
vn -0.8513 0.4954 -0.1731
vn -0.8656 0.4726 -0.1656
vn -0.6081 0.5715 0.5509
vn -0.4672 0.6035 0.6461
vn -0.4968 0.5643 0.6594
vn -0.6527 0.5269 0.5444
vn 0.7489 0.3782 0.5441
vn 0.7146 0.4844 0.5047
vn 0.7207 0.4681 0.5114
vn 0.3062 0.6925 -0.6532
vn -0.2233 0.8271 -0.5158
vn -0.2159 0.8399 -0.4979
vn -0.6969 0.6785 -0.2324
vn -0.5475 0.4889 0.6791
vn -0.7206 0.4831 0.4974
vn 0.6494 0.6221 0.4373
vn -0.1429 0.9364 -0.3206
vn 0.6669 0.4608 0.5856
vn 0.8299 0.4946 -0.2582
vn 0.8342 0.4965 -0.2399
vn 0.8180 0.4891 -0.3028
vn 0.3397 0.9290 0.1468
vn -0.2507 0.4865 0.8369
vn 0.8065 0.5175 -0.2860
vn 0.8220 0.4927 -0.2857
vn 0.8851 0.3708 -0.2811
vn 0.6938 0.6626 -0.2822
vn 0.8451 0.5010 -0.1865
vn -0.7697 0.5009 0.3958
vn -0.7884 0.4833 0.3807
vn -0.8083 0.4632 0.3635
vn -0.5573 0.5538 -0.6186
vn -0.6560 0.4857 -0.5776
vn 0.3849 0.6854 -0.6181
vn 0.4485 0.6207 -0.6431
vn 0.5464 0.5200 -0.6565
vn 0.5411 0.5236 -0.6581
vn 0.2254 0.8112 -0.5396
vn 0.5085 0.4058 -0.7594
vn -0.6717 0.4747 -0.5688
vn -0.9387 0.2048 -0.2774
vn -0.9064 0.2585 -0.3340
vn 0.1946 0.4552 -0.8689
vn 0.3024 0.3467 -0.8879
vn -0.0419 0.8852 -0.4633
vn -0.7371 0.4392 -0.5136
vn -0.8387 0.3434 -0.4226
vn -0.5835 0.5406 -0.6060
vn 0.9871 0.0805 0.1387
vn 0.9462 0.2199 0.2373
vn 0.1600 0.8636 0.4782
vn -0.1150 0.9931 -0.0218
vn -0.5190 0.6483 -0.5571
vn -0.5312 0.5923 0.6058
vn -0.6063 0.6482 0.4607
vn -0.6276 0.6627 0.4086
vn 0.7956 0.4715 0.3804
vn 0.4409 0.4985 -0.7464
vn 0.1533 0.6590 0.7364
vn -0.6997 0.7007 0.1396
vn 0.5831 0.4913 0.6471
vn -0.3540 0.1451 -0.9239
vn -0.3525 0.1720 -0.9199
vn -0.3575 0.0268 -0.9335
vn -0.3473 0.2413 -0.9062
vn 0.0447 0.9931 0.1081
vn -0.1819 0.6483 0.7393
vn 0.7978 0.5923 0.1127
vn 0.7175 0.6482 0.2550
vn 0.6856 0.6627 0.3013
vn -0.1174 0.4715 -0.8740
vn -0.8660 0.4985 0.0399
vn 0.5322 0.6590 -0.5315
vn 0.5000 0.7007 0.5089
vn -0.4820 0.8030 0.3505
vn -0.4062 0.8644 0.2965
vn -0.2639 0.9447 0.1948
vn -0.6003 0.6713 0.4347
vn 0.6238 0.1427 0.7685
vn 0.4334 0.3591 -0.8266
vn -0.6357 0.6058 -0.4784
vn 0.9608 0.2039 -0.1876
vn -0.1126 0.5192 0.8472
# 134 vertex normals

vt 0.7500 0.0000 0.0000
vt 0.9500 0.0000 0.0000
vt 0.9500 1.0000 0.0000
vt 0.7500 1.0000 0.0000
vt 1.0177 0.0000 0.0000
vt 1.0129 1.0000 0.0000
vt 0.1500 0.0000 0.0000
vt 0.3500 0.0000 0.0000
vt 0.3500 1.0000 0.0000
vt 0.1500 1.0000 0.0000
vt 0.5350 0.0000 0.0000
vt 0.5349 1.0000 0.0000
vt 0.5637 0.0000 0.0000
vt 0.6500 0.0000 0.0000
vt 0.6500 1.0000 0.0000
vt 0.5632 1.0000 0.0000
vt 0.5641 1.0000 0.0000
vt 0.5740 1.0000 0.0000
vt 0.6046 1.0000 0.0000
vt 0.6162 1.0000 0.0000
vt 0.5500 1.0000 0.0000
vt 1.1134 1.0000 0.0000
vt 0.7854 0.2698 0.0000
vt 0.6321 0.9791 0.0000
vt 0.7469 0.2698 0.0000
vt 0.3912 0.0000 0.0000
vt 0.5500 0.0000 0.0000
vt 0.5500 0.7982 0.0000
vt 0.5136 1.0000 0.0000
vt 0.4010 1.0000 0.0000
vt 0.5239 1.0000 0.0000
vt 0.5500 0.8991 0.0000
vt 0.7692 0.0000 0.0000
vt 0.7772 1.0000 0.0000
vt 1.1500 0.0000 0.0000
vt 1.1500 1.0000 0.0000
vt 0.3260 0.0000 0.0000
vt 0.3112 1.0000 0.0000
vt 0.3739 0.0000 0.0000
vt 0.3843 1.0000 0.0000
vt 0.7354 0.0000 0.0000
vt 0.7294 1.0000 0.0000
vt 0.7555 1.0000 0.0000
vt 0.3033 1.0000 0.0000
vt 0.4069 1.0000 0.0000
vt 0.7208 0.0000 0.0000
vt 0.6780 1.0000 0.0000
vt 0.6640 0.2849 0.0000
vt 0.5000 1.0000 0.0000
vt 0.7378 0.8273 0.0000
vt 0.8500 0.5000 0.0000
vt 0.9755 0.6545 0.0000
vt 0.2061 0.0955 0.0000
vt 1.0817 0.0000 0.0000
vt 1.0785 1.0000 0.0000
vt 1.0500 1.0000 0.0000
vt 0.7269 1.0000 0.0000
vt 0.6547 1.0000 0.0000
vt 0.5668 1.0115 0.0000
vt 1.0867 0.8924 0.0000
vt 0.5699 0.8994 0.0000
vt 0.7819 0.3425 0.0000
vt 1.1019 1.0000 0.0000
vt 0.8565 0.2389 0.0000
vt 0.7222 1.0000 0.0000
vt 0.6962 1.0000 0.0000
# 66 texture coords

o Rocks2
g Rocks2
s off
f 1/1/1 2/2/2 3/3/3 
f 3/3/3 4/4/4 1/1/1 
f 2/2/2 5/5/5 6/6/6 
f 6/6/6 3/3/3 2/2/2 
f 7/7/7 8/8/8 9/9/9 
f 9/9/9 10/10/10 7/7/7 
f 8/8/11 11/11/12 12/12/13 
f 12/12/13 9/9/14 8/8/11 
f 13/13/15 14/14/16 15/15/17 
f 15/15/17 16/16/18 13/13/15 
f 16/16/18 15/15/17 17/17/19 
f 18/18/20 19/4/21 20/4/22 
f 20/4/22 21/19/23 18/18/20 
f 21/19/23 20/4/22 22/4/24 
f 22/4/24 23/20/25 21/19/23 
f 23/20/26 22/4/26 24/4/27 
f 24/4/27 25/21/28 23/20/26 
f 25/21/28 24/4/27 26/4/29 
f 26/4/29 27/21/30 25/21/28 
f 27/4/30 26/21/29 10/10/10 
f 10/10/10 9/9/9 27/4/30 
f 27/4/31 9/9/14 12/12/13 
f 12/12/13 28/22/32 27/4/31 
f 25/4/33 27/4/31 28/22/32 
f 28/22/32 29/23/34 25/4/33 
f 23/24/25 25/21/33 29/25/34 
f 30/26/35 31/27/36 32/28/36 
f 30/26/35 32/28/36 33/29/36 
f 30/26/35 33/29/36 34/30/37 
f 35/9/38 34/30/38 33/29/39 
f 35/9/38 33/29/39 36/31/40 
f 35/9/38 36/31/40 37/9/38 
f 38/8/41 35/9/42 37/9/43 
f 37/9/43 39/8/43 38/8/41 
f 40/21/44 41/32/44 42/21/44 
f 42/21/44 43/21/44 40/21/44 
f 44/33/45 45/2/45 46/3/46 
f 46/3/46 47/34/47 44/33/45 
f 45/2/48 48/35/48 49/36/49 
f 49/36/49 46/3/50 45/2/48 
f 48/7/51 50/37/51 51/38/52 
f 51/38/52 49/10/53 48/7/51 
f 52/39/54 53/27/55 54/21/56 
f 54/21/56 55/40/57 52/39/54 
f 53/27/58 56/41/58 57/42/59 
f 57/42/59 54/21/60 53/27/58 
f 47/34/47 46/3/46 58/3/61 
f 58/3/61 59/43/61 47/34/47 
f 46/3/50 49/36/49 60/36/62 
f 60/36/62 58/3/63 46/3/50 
f 49/10/53 51/38/52 61/44/64 
f 61/44/64 60/10/64 49/10/53 
f 55/40/57 54/21/56 62/21/65 
f 62/21/65 63/45/66 55/40/57 
f 54/21/60 57/42/59 59/43/67 
f 59/43/67 62/21/67 54/21/60 
f 58/3/63 60/36/62 61/44/68 
f 58/3/63 61/44/68 63/45/68 
f 58/3/63 63/45/68 62/21/68 
f 58/3/63 62/21/68 59/43/68 
f 64/27/69 65/46/69 66/47/69 
f 66/47/69 67/21/69 64/27/69 
f 68/4/70 69/1/71 70/1/72 
f 70/1/72 71/4/72 68/4/70 
f 67/21/73 66/47/73 68/4/73 
f 67/21/73 68/4/73 71/4/73 
f 67/21/73 71/4/73 72/21/73 
f 64/27/74 67/21/74 72/21/74 
f 72/21/74 73/48/74 64/27/74 
f 47/34/75 57/42/76 56/41/77 
f 56/41/77 44/33/77 47/34/75 
f 59/43/78 57/42/76 47/34/75 
f 65/46/79 69/1/71 68/4/70 
f 68/4/70 66/47/79 65/46/79 
f 50/37/80 52/39/54 55/40/57 
f 55/40/57 51/38/81 50/37/80 
f 51/38/81 55/40/57 63/45/66 
f 63/45/66 61/44/82 51/38/81 
f 26/17/29 24/49/27 74/50/83 
f 74/50/83 75/51/84 26/17/29 
f 74/50/85 20/52/86 19/35/87 
f 19/35/87 75/51/88 74/50/85 
f 20/52/86 74/21/85 24/49/89 
f 24/49/89 22/53/89 20/52/86 
f 75/51/88 19/35/87 4/35/4 
f 4/35/4 76/51/90 75/51/88 
f 75/21/84 76/4/91 10/3/10 
f 10/3/10 26/4/29 75/21/84 
f 77/54/92 7/35/7 10/36/10 
f 10/36/10 78/55/93 77/54/92 
f 3/3/3 6/6/6 79/56/94 
f 79/56/94 80/3/95 3/3/3 
f 79/56/96 81/56/96 80/3/96 
f 81/22/97 79/21/98 78/48/93 
f 78/48/93 10/3/10 81/22/97 
f 3/4/3 80/21/95 76/4/90 
f 76/4/90 4/1/4 3/4/3 
f 76/4/91 80/21/99 81/56/97 
f 81/56/97 10/3/10 76/4/91 
f 14/14/16 1/1/100 4/4/101 
f 4/4/101 15/15/17 14/14/16 
f 15/15/17 4/4/101 19/4/21 
f 15/15/17 19/4/21 18/18/20 
f 15/15/17 18/18/20 17/17/19 
f 34/30/37 35/9/42 38/8/41 
f 38/8/41 30/26/35 34/30/37 
f 33/29/39 32/28/102 41/32/102 
f 33/29/39 41/32/102 40/21/102 
f 33/29/39 40/21/102 36/31/40 
f 82/15/103 83/57/103 84/4/103 
f 82/15/103 84/4/103 85/58/103 
f 82/15/103 85/58/103 86/21/103 
f 17/17/19 18/18/20 28/59/32 
f 11/11/12 13/13/15 16/16/18 
f 16/16/18 12/12/13 11/11/12 
f 17/60/19 28/22/32 12/12/13 
f 12/12/13 16/61/18 17/60/19 
f 21/62/23 29/23/34 28/22/32 
f 28/22/32 18/63/20 21/62/23 
f 23/24/25 29/25/34 21/64/23 
f 83/57/104 82/15/104 87/15/104 
f 87/15/104 88/65/104 83/57/104 
f 84/4/105 83/57/106 89/4/107 
f 89/4/107 90/4/105 84/4/105 
f 86/21/108 85/58/108 91/66/108 
f 91/66/108 92/21/108 86/21/108 
f 82/15/109 86/21/109 92/21/109 
f 92/21/109 87/15/109 82/15/109 
f 85/58/110 84/4/110 90/4/110 
f 90/4/110 91/66/110 85/58/110 
f 83/57/106 88/65/111 89/4/107 
f 41/32/112 32/28/112 31/21/112 
f 31/21/112 42/21/112 41/32/112 
f 6/6/113 78/55/114 79/56/115 
f 5/5/116 77/54/116 78/55/114 
f 78/55/114 6/6/113 5/5/116 
f 93/15/117 94/57/117 95/4/117 
f 93/15/117 95/4/117 96/58/117 
f 93/15/117 96/58/117 97/21/117 
f 94/57/118 93/15/118 98/15/118 
f 98/15/118 99/65/118 94/57/118 
f 95/4/119 94/57/120 100/4/121 
f 100/4/121 101/4/119 95/4/119 
f 97/21/122 96/58/122 102/66/122 
f 102/66/122 103/21/122 97/21/122 
f 93/15/123 97/21/123 103/21/123 
f 103/21/123 98/15/123 93/15/123 
f 96/58/124 95/4/124 101/4/124 
f 101/4/124 102/66/124 96/58/124 
f 94/57/120 99/65/125 100/4/121 
f 104/15/126 105/57/127 106/4/128 
f 104/15/126 106/4/128 107/58/128 
f 104/15/126 107/58/128 108/21/128 
f 105/57/127 104/15/126 109/15/129 
f 109/15/129 110/65/129 105/57/127 
f 106/4/130 105/57/130 111/4/130 
f 111/4/130 112/4/130 106/4/130 
f 108/21/131 107/58/131 113/66/131 
f 113/66/131 114/21/131 108/21/131 
f 104/15/132 108/21/132 114/21/132 
f 114/21/132 109/15/132 104/15/132 
f 107/58/133 106/4/133 112/4/133 
f 112/4/133 113/66/133 107/58/133 
f 105/57/134 110/65/134 111/4/134 
# 164 faces

